<svg width="97" height="47" viewBox="0 0 97 47" fill="none" xmlns="http://www.w3.org/2000/svg">
<path d="M15.2855 46.7974C17.7054 46.7974 20.4761 44.7595 21.4777 42.2421C22.4792 39.7247 21.3353 37.6868 18.9154 37.6868H14.6144C12.1945 37.6868 9.42378 39.7247 8.42226 42.2421C7.91895 43.4982 7.95454 44.6396 8.42226 45.4631C8.88489 46.2866 9.77965 46.7974 10.9845 46.7974H15.2855Z" fill="white"/>
<path d="M6.55642 0.715027C4.1365 0.715027 1.36578 2.75293 0.364255 5.27035C-0.139049 6.52645 -0.103462 7.66789 0.364255 8.49139C0.826888 9.31489 1.72165 9.82567 2.92653 9.82567H7.2275C9.64742 9.82567 12.4181 7.78777 13.4197 5.27035C14.4212 2.75293 13.2773 0.715027 10.8574 0.715027H6.55642Z" fill="white"/>
<path d="M21.7526 28.0358C22.9625 28.0358 24.2589 27.525 25.3825 26.7015C26.5009 25.878 27.4465 24.7365 27.9498 23.4804C28.9514 20.963 27.8075 18.9251 25.3876 18.9251H8.74801C6.32808 18.9251 3.55736 20.963 2.55584 23.4804C1.55431 25.9979 2.69819 28.0358 5.11812 28.0358H21.7526Z" fill="white"/>
<path d="M94.994 10.785C94.2619 8.90343 93.2299 7.20431 91.8979 5.6876C90.5608 4.17089 88.9798 2.96171 87.1445 2.06524C85.3092 1.16876 83.3061 0.72052 81.1404 0.72052H61.9996H58.1104H49.0052H43.8705H39.5848H35.7108H32.086H21.0286C19.8186 0.72052 18.5222 1.2313 17.3987 2.0548C16.2802 2.87831 15.3346 4.01976 14.8313 5.27586C13.8298 7.79328 14.9737 9.83118 17.3936 9.83118H27.0276H30.0525H33.1231H36.265H39.5085H42.8893H46.5243H50.6676H56.6056H56.8903C58.4968 9.83118 59.539 10.7329 59.7627 12.0776C59.8796 12.7551 59.7881 13.5422 59.4526 14.3865C59.356 14.621 59.2441 14.8504 59.1221 15.0797C58.5883 16.0596 57.8003 16.9352 56.8903 17.6076C55.9294 18.3164 54.8364 18.7855 53.784 18.9106C53.6112 18.9314 53.4333 18.9418 53.2604 18.9418H50.6015H47.6071H44.6839H41.8013H38.934H36.6259C36.448 18.9418 36.265 18.9575 36.082 18.9783C35.0652 19.0982 34.0128 19.5516 33.0774 20.2188C33.052 20.2396 33.0215 20.2553 32.996 20.2761C31.8776 21.0996 30.932 22.2411 30.4287 23.4972C30.2711 23.8881 30.1745 24.2633 30.1186 24.623C30.0322 25.2015 30.0627 25.7331 30.2101 26.2022C30.5609 27.3228 31.5471 28.0473 32.9859 28.0473H33.2401H36.082H38.9239H41.7912H44.6737H47.597H50.5914H53.7485H57.4648H61.9793V37.1527C60.8557 37.1684 61.2218 37.1527 60.8557 37.1527H56.5903H50.6524H46.509H42.874H39.4933H36.2497H33.1079H30.0372H29.3458C28.6442 37.1527 27.9122 37.3299 27.2004 37.6375C25.4668 38.3828 23.8654 39.9255 23.1537 41.7081C22.1521 44.2255 23.296 46.2634 25.7159 46.2634H32.0606H35.6854H39.5593H43.8451H48.9798H58.085H61.9742H63.6214H68.8527H74.1704V32.2795H81.4251C84.3433 32.2795 86.9005 31.5185 89.0865 30.0018C91.2777 28.4851 92.9859 26.5306 94.2162 24.133C95.4465 21.7407 96.0616 19.1972 96.0616 16.5026C96.087 14.5689 95.721 12.6665 94.994 10.785ZM83.2299 19.3797C82.9147 20.1093 82.5334 20.6201 82.0708 20.9172C81.6132 21.2143 81.1302 21.3654 80.632 21.3654H74.1908V11.6189H80.3219C80.8201 11.6189 81.3336 11.7596 81.8522 12.0359C82.3707 12.3121 82.813 12.8073 83.1638 13.5109C83.5197 14.2145 83.6976 15.21 83.6976 16.4922C83.7027 17.6909 83.5451 18.65 83.2299 19.3797Z" fill="white"/>
</svg>
