<svg width="9" height="7" viewBox="0 0 9 7" fill="none" xmlns="http://www.w3.org/2000/svg">
<path d="M3.12539 5.4115L1.53498 3.82108C1.44928 3.73538 1.33305 3.68724 1.21185 3.68724C1.09066 3.68724 0.974424 3.73538 0.888726 3.82108C0.803027 3.90678 0.754883 4.02301 0.754883 4.14421C0.754883 4.20422 0.766703 4.26364 0.789668 4.31908C0.812632 4.37452 0.846292 4.4249 0.888726 4.46733L2.80456 6.38317C2.98331 6.56192 3.27206 6.56192 3.45081 6.38317L8.29998 1.534C8.38567 1.4483 8.43382 1.33207 8.43382 1.21087C8.43382 1.08968 8.38567 0.973447 8.29998 0.887749C8.21428 0.802051 8.09805 0.753906 7.97685 0.753906C7.85566 0.753906 7.73942 0.802051 7.65373 0.887749L3.12539 5.4115Z" fill="#D04E47"/>
</svg>
