<svg width="20" height="20" viewBox="0 0 20 20" fill="none" xmlns="http://www.w3.org/2000/svg">
<path d="M10.0009 0C7.2851 0 6.9442 0.0118999 5.8776 0.0603994C4.813 0.109199 4.0863 0.277697 3.4505 0.524995C2.7927 0.780392 2.2348 1.12209 1.679 1.67808C1.1227 2.23398 0.781 2.79187 0.5248 3.44937C0.2768 4.08536 0.1081 4.81235 0.0601999 5.87644C0.0124999 6.94313 0 7.28413 0 10C0 12.7159 0.012 13.0557 0.0604 14.1223C0.1094 15.1868 0.2779 15.9135 0.525 16.5493C0.7806 17.2071 1.1223 17.765 1.6783 18.3208C2.234 18.8771 2.7919 19.2196 3.4492 19.475C4.0855 19.7223 4.8123 19.8908 5.8767 19.9396C6.9434 19.9881 7.284 20 9.9997 20C12.7158 20 13.0556 19.9881 14.1222 19.9396C15.1868 19.8908 15.9143 19.7223 16.5506 19.475C17.2081 19.2196 17.7652 18.8771 18.3208 18.3208C18.8771 17.765 19.2187 17.2071 19.475 16.5496C19.7208 15.9135 19.8896 15.1866 19.9396 14.1225C19.9875 13.0559 20 12.7159 20 10C20 7.28413 19.9875 6.94333 19.9396 5.87664C19.8896 4.81205 19.7208 4.08546 19.475 3.44967C19.2187 2.79187 18.8771 2.23398 18.3208 1.67808C17.7646 1.12189 17.2083 0.780192 16.55 0.525095C15.9125 0.277697 15.1854 0.109099 14.1208 0.0603994C13.0541 0.0118999 12.7145 0 9.9978 0H10.0009ZM9.1038 1.80208C9.3701 1.80168 9.6672 1.80208 10.0009 1.80208C12.671 1.80208 12.9874 1.81168 14.0418 1.85958C15.0168 1.90418 15.546 2.06708 15.8985 2.20398C16.3652 2.38518 16.6979 2.60187 17.0477 2.95197C17.3977 3.30197 17.6143 3.63526 17.796 4.10196C17.9329 4.45396 18.096 4.98315 18.1404 5.95814C18.1883 7.01233 18.1987 7.32893 18.1987 9.9977C18.1987 12.6665 18.1883 12.9832 18.1404 14.0373C18.0958 15.0122 17.9329 15.5414 17.796 15.8935C17.6148 16.3602 17.3977 16.6925 17.0477 17.0423C16.6977 17.3923 16.3654 17.6089 15.8985 17.7902C15.5464 17.9277 15.0168 18.0902 14.0418 18.1348C12.9876 18.1827 12.671 18.1931 10.0009 18.1931C7.3307 18.1931 7.0142 18.1827 5.9601 18.1348C4.9851 18.0898 4.4559 17.9269 4.1031 17.79C3.6365 17.6087 3.3031 17.3921 2.9531 17.0421C2.6031 16.6921 2.3865 16.3596 2.2048 15.8927C2.0679 15.5406 1.9048 15.0114 1.8604 14.0365C1.8125 12.9823 1.8029 12.6657 1.8029 9.9952C1.8029 7.32473 1.8125 7.00983 1.8604 5.95564C1.905 4.98065 2.0679 4.45146 2.2048 4.09896C2.3861 3.63226 2.6031 3.29897 2.9532 2.94897C3.3033 2.59897 3.6365 2.38228 4.1032 2.20068C4.4557 2.06318 4.9851 1.90068 5.9601 1.85588C6.8826 1.81418 7.2401 1.80168 9.1038 1.79958V1.80208ZM15.3389 3.46247C14.6764 3.46247 14.1389 3.99946 14.1389 4.66205C14.1389 5.32455 14.6764 5.86204 15.3389 5.86204C16.0014 5.86204 16.5389 5.32455 16.5389 4.66205C16.5389 3.99956 16.0014 3.46207 15.3389 3.46207V3.46247ZM10.0009 4.86455C7.1649 4.86455 4.8655 7.16393 4.8655 10C4.8655 12.8361 7.1649 15.1343 10.0009 15.1343C12.837 15.1343 15.1356 12.8361 15.1356 10C15.1356 7.16403 12.8368 4.86455 10.0007 4.86455H10.0009ZM10.0009 6.66663C11.8418 6.66663 13.3343 8.15892 13.3343 10C13.3343 11.8409 11.8418 13.3334 10.0009 13.3334C8.16 13.3334 6.6676 11.8409 6.6676 10C6.6676 8.15892 8.1599 6.66663 10.0009 6.66663Z" fill="white"/>
</svg>
