<svg width="9" height="12" viewBox="0 0 9 12" fill="none" xmlns="http://www.w3.org/2000/svg">
<path d="M4.4998 5.70866C4.10198 5.70866 3.72045 5.55501 3.43914 5.28152C3.15784 5.00803 2.9998 4.6371 2.9998 4.25033C2.9998 3.86355 3.15784 3.49262 3.43914 3.21913C3.72045 2.94564 4.10198 2.79199 4.4998 2.79199C4.89763 2.79199 5.27916 2.94564 5.56046 3.21913C5.84177 3.49262 5.9998 3.86355 5.9998 4.25033C5.9998 4.44184 5.96101 4.63147 5.88562 4.80841C5.81024 4.98534 5.69975 5.1461 5.56046 5.28152C5.42118 5.41694 5.25582 5.52436 5.07383 5.59765C4.89184 5.67094 4.69679 5.70866 4.4998 5.70866ZM4.4998 0.166992C3.3859 0.166992 2.31761 0.597199 1.52996 1.36297C0.742303 2.12875 0.299805 3.16736 0.299805 4.25033C0.299805 7.31283 4.4998 11.8337 4.4998 11.8337C4.4998 11.8337 8.6998 7.31283 8.6998 4.25033C8.6998 3.16736 8.25731 2.12875 7.46965 1.36297C6.682 0.597199 5.61371 0.166992 4.4998 0.166992Z" fill="#D04E47"/>
</svg>
