<svg width="199" height="63" viewBox="0 0 199 63" fill="none" xmlns="http://www.w3.org/2000/svg">
<path d="M94.9414 58.3512C94.9414 57.7986 95.0401 57.2618 95.2414 56.729C95.4387 56.2001 95.7308 55.7146 96.1137 55.2804C96.4965 54.8423 96.9623 54.4949 97.5109 54.2384C98.0635 53.9818 98.6872 53.8516 99.3937 53.8516C100.223 53.8516 100.941 54.0331 101.549 54.4002C102.153 54.7633 102.607 55.2409 102.903 55.8251L101.557 56.7526C101.403 56.4132 101.205 56.1448 100.961 55.9435C100.716 55.7462 100.451 55.6041 100.171 55.5251C99.891 55.4462 99.6147 55.4028 99.3463 55.4028C98.9042 55.4028 98.5214 55.4935 98.1938 55.6712C97.8662 55.8488 97.5938 56.0816 97.3728 56.3698C97.1518 56.6579 96.9899 56.9816 96.8834 57.3368C96.7768 57.6921 96.7255 58.0473 96.7255 58.4065C96.7255 58.8051 96.7886 59.188 96.9149 59.5551C97.0412 59.9221 97.2228 60.2497 97.4557 60.5339C97.6886 60.8181 97.9688 61.0431 98.2964 61.2089C98.624 61.3747 98.9792 61.4575 99.37 61.4575C99.6502 61.4575 99.9344 61.4102 100.223 61.3194C100.511 61.2247 100.779 61.0786 101.024 60.8734C101.269 60.6681 101.462 60.4076 101.596 60.084L103.033 60.9089C102.855 61.3589 102.563 61.7378 102.161 62.0535C101.758 62.3654 101.308 62.6061 100.807 62.764C100.305 62.9258 99.8121 63.0048 99.3187 63.0048C98.6753 63.0048 98.0872 62.8706 97.5504 62.6061C97.0176 62.3377 96.5557 61.9825 96.1729 61.5365C95.7861 61.0905 95.4861 60.5931 95.269 60.0366C95.0519 59.4801 94.9414 58.9156 94.9414 58.3512Z" fill="url(#paint0_linear_1432_56)"/>
<path d="M107.948 62.997C107.285 62.997 106.689 62.8707 106.148 62.6141C105.611 62.3615 105.149 62.0142 104.763 61.58C104.376 61.1419 104.08 60.6524 103.867 60.1038C103.653 59.5591 103.547 58.9947 103.547 58.4184C103.547 57.8184 103.657 57.2422 103.882 56.6975C104.107 56.1488 104.415 55.6634 104.81 55.2371C105.205 54.8108 105.67 54.4713 106.207 54.2187C106.744 53.9701 107.336 53.8438 107.979 53.8438C108.631 53.8438 109.227 53.974 109.767 54.2385C110.304 54.5029 110.766 54.8542 111.145 55.2923C111.528 55.7344 111.824 56.2238 112.033 56.7685C112.246 57.3093 112.353 57.8697 112.353 58.446C112.353 59.0381 112.242 59.6104 112.021 60.1551C111.8 60.7037 111.492 61.1892 111.098 61.6155C110.703 62.0418 110.237 62.3812 109.7 62.6259C109.171 62.8746 108.583 62.997 107.948 62.997ZM105.331 58.4223C105.331 58.8131 105.39 59.1881 105.509 59.5551C105.627 59.9183 105.801 60.2459 106.022 60.5261C106.247 60.8103 106.523 61.0353 106.847 61.2011C107.174 61.3668 107.545 61.4497 107.96 61.4497C108.382 61.4497 108.761 61.3629 109.092 61.1892C109.424 61.0156 109.696 60.7827 109.917 60.4906C110.138 60.1985 110.304 59.8709 110.419 59.5117C110.533 59.1525 110.592 58.7894 110.592 58.4263C110.592 58.0355 110.529 57.6606 110.407 57.3014C110.284 56.9422 110.111 56.6185 109.886 56.3344C109.661 56.0502 109.385 55.8252 109.061 55.6594C108.733 55.4936 108.366 55.4107 107.96 55.4107C107.526 55.4107 107.147 55.4976 106.823 55.6712C106.495 55.8449 106.223 56.0778 106.002 56.3659C105.781 56.6541 105.615 56.9777 105.501 57.333C105.386 57.6842 105.331 58.0474 105.331 58.4223Z" fill="url(#paint1_linear_1432_56)"/>
<path d="M121.072 62.9332V57.0086L118.759 61.4214H117.78L115.467 57.0086V62.9332H113.711V53.9062H115.594L118.262 59.0414L120.958 53.9062H122.825V62.9332H121.072Z" fill="url(#paint2_linear_1432_56)"/>
<path d="M124.707 62.9332V53.9062H128.536C128.95 53.9062 129.333 53.9891 129.68 54.1589C130.028 54.3286 130.332 54.5575 130.588 54.8457C130.845 55.1338 131.046 55.4574 131.192 55.8127C131.334 56.1679 131.409 56.535 131.409 56.906C131.409 57.4152 131.291 57.8967 131.054 58.3546C130.817 58.8124 130.489 59.1835 130.075 59.4716C129.661 59.7597 129.167 59.9018 128.599 59.9018H126.463V62.9292H124.707V62.9332ZM126.46 58.3704H128.492C128.705 58.3704 128.895 58.3112 129.065 58.1928C129.234 58.0743 129.369 57.9007 129.471 57.6796C129.574 57.4546 129.625 57.1981 129.625 56.91C129.625 56.5981 129.566 56.3297 129.451 56.1087C129.337 55.8877 129.187 55.7219 129.005 55.6114C128.824 55.5009 128.626 55.4456 128.413 55.4456H126.456V58.3704H126.46Z" fill="url(#paint3_linear_1432_56)"/>
<path d="M134.433 53.9062H136.213L139.532 62.9332H137.729L136.979 60.6833H133.663L132.909 62.9332H131.105L134.433 53.9062ZM136.564 59.4519L135.321 55.7258L134.074 59.4519H136.564Z" fill="url(#paint4_linear_1432_56)"/>
<path d="M142.276 57.1349V62.9332H140.52V53.9062H141.917L146.582 59.8545V53.9181H148.339V62.9332H146.878L142.276 57.1349Z" fill="url(#paint5_linear_1432_56)"/>
<path d="M151.238 53.9062L153.465 58.1533L155.726 53.9062H157.621L154.341 59.7795V62.9332H152.6V59.7558L149.332 53.9062H151.238Z" fill="url(#paint6_linear_1432_56)"/>
<path d="M48.3847 62.9332V57.0086L46.0717 61.4214H45.0928L42.7799 57.0086V62.9332H41.0234V53.9062H42.9062L45.5744 59.0414L48.2702 53.9062H50.1372V62.9332H48.3847Z" fill="url(#paint7_linear_1432_56)"/>
<path d="M55.8736 62.997C55.2105 62.997 54.6145 62.8707 54.0738 62.6141C53.537 62.3615 53.0752 62.0142 52.6883 61.58C52.3015 61.1419 52.0055 60.6524 51.7924 60.1038C51.5792 59.5591 51.4727 58.9947 51.4727 58.4184C51.4727 57.8184 51.5832 57.2422 51.8082 56.6975C52.0331 56.1528 52.341 55.6634 52.7357 55.2371C53.1304 54.8108 53.5962 54.4713 54.133 54.2187C54.6698 53.9701 55.2618 53.8438 55.9052 53.8438C56.5565 53.8438 57.1525 53.974 57.6932 54.2385C58.23 54.5029 58.6918 54.8542 59.0707 55.2923C59.4536 55.7344 59.7496 56.2238 59.9588 56.7685C60.172 57.3093 60.2785 57.8697 60.2785 58.446C60.2785 59.0381 60.168 59.6104 59.947 60.1551C59.7259 60.7037 59.4181 61.1892 59.0234 61.6155C58.6287 62.0418 58.1629 62.3812 57.6261 62.6259C57.0972 62.8746 56.5091 62.997 55.8736 62.997ZM53.2567 58.4223C53.2567 58.8131 53.3159 59.1881 53.4343 59.5551C53.5528 59.9183 53.7264 60.2459 53.9475 60.5261C54.1724 60.8103 54.4487 61.0353 54.7724 61.2011C55.1 61.3668 55.471 61.4497 55.8855 61.4497C56.3078 61.4497 56.6867 61.3629 57.0183 61.1892C57.3498 61.0156 57.6222 60.7827 57.8432 60.4906C58.0642 60.1985 58.23 59.8709 58.3445 59.5117C58.4589 59.1525 58.5181 58.7894 58.5181 58.4263C58.5181 58.0355 58.455 57.6606 58.3326 57.3014C58.2103 56.9422 58.0366 56.6185 57.8116 56.3344C57.5866 56.0502 57.3103 55.8252 56.9867 55.6594C56.6591 55.4936 56.292 55.4107 55.8855 55.4107C55.4513 55.4107 55.0724 55.4976 54.7487 55.6712C54.4211 55.8449 54.1488 56.0778 53.9277 56.3659C53.7067 56.6541 53.5409 56.9777 53.4264 57.333C53.312 57.6842 53.2567 58.0474 53.2567 58.4223Z" fill="url(#paint8_linear_1432_56)"/>
<path d="M69.8828 62.9332V53.9062H71.6392V62.9332H69.8828Z" fill="url(#paint9_linear_1432_56)"/>
<path d="M75.2721 57.1349V62.9332H73.5156V53.9062H74.9129L79.5783 59.8545V53.9181H81.3347V62.9332H79.8743L75.2721 57.1349Z" fill="url(#paint10_linear_1432_56)"/>
<path d="M86.9701 62.9931C86.3859 62.9931 85.8333 62.8747 85.3123 62.6379C84.7913 62.401 84.3335 62.0734 83.9388 61.6511C83.544 61.2327 83.2362 60.7433 83.0151 60.1828C82.7941 59.6223 82.6836 59.0184 82.6836 58.3632C82.6836 57.7435 82.7941 57.1633 83.0151 56.6147C83.2362 56.066 83.5441 55.5884 83.9427 55.17C84.3414 54.7556 84.8071 54.428 85.34 54.1912C85.8728 53.9543 86.453 53.8359 87.0806 53.8359C87.9292 53.8359 88.6555 54.0175 89.2594 54.3767C89.8672 54.7359 90.3211 55.2135 90.6251 55.8055L89.3146 56.7725C89.0857 56.3226 88.766 55.9792 88.3555 55.7424C87.945 55.5055 87.499 55.3871 87.0135 55.3871C86.6306 55.3871 86.2833 55.4661 85.9715 55.6279C85.6597 55.7897 85.3873 56.0108 85.1584 56.2871C84.9295 56.5633 84.7518 56.891 84.6295 57.2541C84.5071 57.6172 84.444 58.004 84.444 58.4106C84.444 58.8447 84.5111 59.2395 84.6413 59.6065C84.7716 59.9697 84.9571 60.2894 85.2018 60.5617C85.4426 60.8341 85.7268 61.0472 86.0465 61.2051C86.3701 61.363 86.7254 61.4419 87.1161 61.4419C87.574 61.4419 88.0121 61.3235 88.4305 61.0867C88.8489 60.8498 89.2436 60.5025 89.6067 60.0446V61.7735C88.8607 62.5865 87.9766 62.9931 86.9701 62.9931ZM89.4883 59.575H87.6687V58.2922H90.9369V62.9339H89.4883V59.575Z" fill="url(#paint11_linear_1432_56)"/>
<path d="M70.0414 50.8649L68.8178 48.8203L66.9587 50.6596L67.606 50.6991L64.6576 60.847L62.2144 53.9041H60.3711L63.805 62.931H65.4944L69.4019 50.8136L70.0414 50.8649Z" fill="url(#paint12_linear_1432_56)"/>
<path d="M191.654 36.6291H177.587V31.1506H190.091V32.6545L197.077 27.2312L190.091 21.8119V23.4223H177.587V18.5279H191.654V19.8621L198.644 14.4427L191.654 9.02344V10.2115H168.047V44.9456H191.654V46.3152L198.644 40.8959L191.654 35.4726V36.6291Z" fill="white"/>
<path d="M78.3906 44.8682V10.3828H94.2262C95.9076 10.3828 97.4628 10.7223 98.8877 11.4011C100.313 12.08 101.544 12.9958 102.578 14.1444C103.612 15.2929 104.414 16.5797 104.982 18.0046C105.546 19.4295 105.831 20.8701 105.831 22.3266C105.831 23.6528 105.637 24.9316 105.246 26.1631C104.86 27.3946 104.291 28.5195 103.545 29.5379C102.799 30.5562 101.911 31.4403 100.873 32.1863L108.159 44.8643H97.7667L91.6961 34.2743H87.8596V44.8643H78.3906V44.8682ZM87.8596 26.021H93.8354C94.2223 26.021 94.5972 25.875 94.9525 25.5829C95.3077 25.2908 95.6077 24.8724 95.8524 24.3199C96.0971 23.7712 96.2155 23.1042 96.2155 22.3266C96.2155 21.5174 96.0774 20.8464 95.8011 20.3096C95.5248 19.7768 95.1853 19.3623 94.7827 19.0703C94.3762 18.7782 93.9815 18.6321 93.5947 18.6321H87.8636V26.021H87.8596Z" fill="white"/>
<path d="M111.176 44.8682V10.3828H120.649V44.8682H111.176Z" fill="white"/>
<path d="M152.66 44.8682V26.7039L146.882 39.4765H141.83L136.051 26.7039V44.8682H126.578V10.3828H136.923L144.356 26.6052L151.835 10.3828H162.133V44.8682H152.66Z" fill="white"/>
<path d="M11.8652 45.2823C13.744 45.2823 15.8952 43.739 16.6727 41.8325C17.4503 39.9261 16.5622 38.3828 14.6834 38.3828H11.3442C9.46542 38.3828 7.31428 39.9261 6.53671 41.8325C6.14595 42.7838 6.17358 43.6482 6.53671 44.2718C6.89589 44.8954 7.59057 45.2823 8.52602 45.2823H11.8652Z" fill="white"/>
<path d="M5.09031 10.3828C3.21152 10.3828 1.06037 11.9261 0.282803 13.8325C-0.107956 14.7838 -0.0803263 15.6482 0.282803 16.2718C0.641984 16.8954 1.33666 17.2823 2.27212 17.2823H5.61132C7.49012 17.2823 9.64126 15.739 10.4188 13.8325C11.1964 11.9261 10.3083 10.3828 8.42952 10.3828H5.09031Z" fill="white"/>
<path d="M16.8887 31.0713C17.8281 31.0713 18.8346 30.6845 19.7069 30.0609C20.5752 29.4372 21.3094 28.5728 21.7002 27.6216C22.4777 25.7152 21.5896 24.1719 19.7108 24.1719H6.79213C4.91334 24.1719 2.76219 25.7152 1.98462 27.6216C1.20705 29.528 2.09514 31.0713 3.97394 31.0713H16.8887Z" fill="white"/>
<path d="M73.753 18.0124C73.1846 16.5875 72.3834 15.3008 71.3493 14.1522C70.3112 13.0036 69.0836 12.0879 67.6588 11.409C66.2339 10.7301 64.6787 10.3906 62.9973 10.3906H48.1366H45.1171H38.048H34.0614H30.7341H27.7264H24.9122H16.3273C15.3879 10.3906 14.3814 10.7774 13.5091 11.4011C12.6408 12.0247 11.9066 12.8891 11.5159 13.8404C10.7383 15.7468 11.6264 17.2901 13.5052 17.2901H20.9849H23.3334H25.7174H28.1566H30.6749H33.2997H36.1218H39.3387H43.9488H44.1698C45.4171 17.2901 46.2263 17.9729 46.3999 18.9913C46.4907 19.5044 46.4197 20.1004 46.1592 20.7398C46.0842 20.9174 45.9973 21.0911 45.9026 21.2648C45.4882 22.0068 44.8764 22.6699 44.1698 23.1791C43.4239 23.7159 42.5752 24.0711 41.7582 24.1658C41.624 24.1816 41.4859 24.1895 41.3517 24.1895H39.2873H36.9625H34.693H32.455H30.2289H28.4369C28.2987 24.1895 28.1566 24.2014 28.0146 24.2172C27.2251 24.3079 26.4081 24.6513 25.6818 25.1566C25.6621 25.1723 25.6384 25.1842 25.6187 25.2C24.7503 25.8236 24.0162 26.688 23.6254 27.6393C23.5031 27.9353 23.4281 28.2195 23.3847 28.4918C23.3176 28.9299 23.3412 29.3325 23.4557 29.6878C23.7281 30.5364 24.4938 31.085 25.6108 31.085H25.8082H28.0146H30.221H32.4471H34.6851H36.9546H39.2794H41.7306H44.6159H48.1208V37.9805C47.2485 37.9924 47.5327 37.9805 47.2486 37.9805H43.937H39.3268H36.11H33.2878H30.663H28.1448H25.7055H23.3215H22.7847C22.24 37.9805 21.6716 38.1147 21.1191 38.3476C19.7731 38.912 18.5298 40.0804 17.9772 41.4303C17.1996 43.3367 18.0877 44.88 19.9665 44.88H24.8924H27.7067H30.7143H34.0417H38.0282H45.0974H48.1169H49.3957H53.4573H57.5859V34.29H63.2183C65.4839 34.29 67.4693 33.7138 69.1665 32.5652C70.8677 31.4166 72.1939 29.9364 73.1491 28.1208C74.1043 26.3091 74.5819 24.3829 74.5819 22.3423C74.6016 20.8779 74.3174 19.4373 73.753 18.0124ZM64.6195 24.5211C64.3748 25.0737 64.0788 25.4605 63.7196 25.6855C63.3644 25.9104 62.9894 26.0249 62.6026 26.0249H57.6017V18.6439H62.3618C62.7486 18.6439 63.1473 18.7505 63.5499 18.9597C63.9525 19.1689 64.2959 19.5438 64.5682 20.0767C64.8445 20.6095 64.9827 21.3634 64.9827 22.3344C64.9866 23.2422 64.8642 23.9685 64.6195 24.5211Z" fill="white"/>
<path d="M150.539 4.95833C150.345 4.07814 149.974 3.28082 149.437 2.55851C148.849 1.76516 148.111 1.13758 147.231 0.687614C146.094 0.10345 144.886 -0.093908 143.619 0.0402918C143.6 0.0442389 143.576 0.0481893 143.556 0.0560834C143.209 0.0837128 142.869 0.162649 142.534 0.261326C141.859 0.462626 141.235 0.770506 140.663 1.18495C139.743 1.84805 139.049 2.69667 138.579 3.72685C138.157 4.65046 137.971 5.62143 138.03 6.63188C138.05 7.01869 138.113 7.40156 138.216 7.77258C138.22 7.8081 138.224 7.84362 138.236 7.8752C138.397 8.48699 138.603 9.08694 138.859 9.66321C139.167 10.3579 139.487 11.0486 139.83 11.7275C140.537 13.1208 141.322 14.4747 142.155 15.7969C142.779 16.7916 143.43 17.7705 144.069 18.7533C144.144 18.8717 144.231 18.9822 144.314 19.0927C144.342 19.0927 144.365 19.0927 144.393 19.0927C144.405 19.073 144.417 19.0572 144.432 19.0375C144.444 19.0256 144.46 19.0177 144.468 19.0059C144.614 18.7927 144.76 18.5875 144.898 18.3704C145.51 17.4231 146.13 16.4798 146.726 15.5246C147.101 14.9286 147.448 14.3168 147.799 13.7089C148.447 12.588 149.054 11.4473 149.591 10.2671C149.879 9.63163 150.136 8.98827 150.345 8.32121C150.416 8.09623 150.463 7.8673 150.519 7.63837C150.523 7.62653 150.531 7.61469 150.535 7.60285C150.736 6.72265 150.736 5.84247 150.539 4.95833ZM143.785 14.3405C143.671 14.2457 143.556 14.155 143.442 14.0563C143.556 14.155 143.671 14.2497 143.785 14.3405ZM147.349 6.58451C147.235 7.39761 146.84 8.06071 146.189 8.56199C145.589 9.0238 144.91 9.22904 144.152 9.18562C144.128 9.18562 144.105 9.18562 144.081 9.18562C144.038 9.18167 143.994 9.17377 143.951 9.16983C143.939 9.16983 143.931 9.16589 143.919 9.16589C143.71 9.11063 143.497 9.06721 143.296 8.99222C142.786 8.80671 142.36 8.50278 142.021 8.08439C141.543 7.50022 141.302 6.82528 141.33 6.07139C141.366 5.11225 141.768 4.33075 142.526 3.73869C142.96 3.39924 143.454 3.20189 143.998 3.13479C144.01 3.13479 144.026 3.12689 144.038 3.12294C144.263 3.12689 144.488 3.11111 144.709 3.13479C145.328 3.19795 145.877 3.44266 146.339 3.8571C147.148 4.5873 147.499 5.49907 147.349 6.58451Z" fill="#D04E47"/>
<defs>
<linearGradient id="paint0_linear_1432_56" x1="98.9373" y1="59.3179" x2="102.106" y2="74.3036" gradientUnits="userSpaceOnUse">
<stop stop-color="white"/>
<stop offset="1" stop-color="#D9D9D9" stop-opacity="0"/>
</linearGradient>
<linearGradient id="paint1_linear_1432_56" x1="107.896" y1="59.3101" x2="110.826" y2="74.3963" gradientUnits="userSpaceOnUse">
<stop stop-color="white"/>
<stop offset="1" stop-color="#D9D9D9" stop-opacity="0"/>
</linearGradient>
<linearGradient id="paint2_linear_1432_56" x1="118.212" y1="59.2972" x2="120.975" y2="74.2251" gradientUnits="userSpaceOnUse">
<stop stop-color="white"/>
<stop offset="1" stop-color="#D9D9D9" stop-opacity="0"/>
</linearGradient>
<linearGradient id="paint3_linear_1432_56" x1="128.017" y1="59.2972" x2="131.672" y2="73.8166" gradientUnits="userSpaceOnUse">
<stop stop-color="white"/>
<stop offset="1" stop-color="#D9D9D9" stop-opacity="0"/>
</linearGradient>
<linearGradient id="paint4_linear_1432_56" x1="135.267" y1="59.2972" x2="138.239" y2="74.1417" gradientUnits="userSpaceOnUse">
<stop stop-color="white"/>
<stop offset="1" stop-color="#D9D9D9" stop-opacity="0"/>
</linearGradient>
<linearGradient id="paint5_linear_1432_56" x1="144.381" y1="59.2972" x2="147.564" y2="74.0499" gradientUnits="userSpaceOnUse">
<stop stop-color="white"/>
<stop offset="1" stop-color="#D9D9D9" stop-opacity="0"/>
</linearGradient>
<linearGradient id="paint6_linear_1432_56" x1="153.425" y1="59.2972" x2="156.443" y2="74.1225" gradientUnits="userSpaceOnUse">
<stop stop-color="white"/>
<stop offset="1" stop-color="#D9D9D9" stop-opacity="0"/>
</linearGradient>
<linearGradient id="paint7_linear_1432_56" x1="45.5241" y1="59.2972" x2="48.2877" y2="74.2251" gradientUnits="userSpaceOnUse">
<stop stop-color="white"/>
<stop offset="1" stop-color="#D9D9D9" stop-opacity="0"/>
</linearGradient>
<linearGradient id="paint8_linear_1432_56" x1="55.8213" y1="59.3101" x2="58.7522" y2="74.3963" gradientUnits="userSpaceOnUse">
<stop stop-color="white"/>
<stop offset="1" stop-color="#D9D9D9" stop-opacity="0"/>
</linearGradient>
<linearGradient id="paint9_linear_1432_56" x1="70.7502" y1="59.2972" x2="78.4637" y2="67.3274" gradientUnits="userSpaceOnUse">
<stop stop-color="white"/>
<stop offset="1" stop-color="#D9D9D9" stop-opacity="0"/>
</linearGradient>
<linearGradient id="paint10_linear_1432_56" x1="77.377" y1="59.2972" x2="80.5602" y2="74.0499" gradientUnits="userSpaceOnUse">
<stop stop-color="white"/>
<stop offset="1" stop-color="#D9D9D9" stop-opacity="0"/>
</linearGradient>
<linearGradient id="paint11_linear_1432_56" x1="86.7594" y1="59.3046" x2="89.8734" y2="74.3212" gradientUnits="userSpaceOnUse">
<stop stop-color="white"/>
<stop offset="1" stop-color="#D9D9D9" stop-opacity="0"/>
</linearGradient>
<linearGradient id="paint12_linear_1432_56" x1="65.1466" y1="57.2473" x2="71.2732" y2="79.7113" gradientUnits="userSpaceOnUse">
<stop stop-color="white"/>
<stop offset="1" stop-color="#D9D9D9" stop-opacity="0"/>
</linearGradient>
</defs>
</svg>
