<svg width="136" height="45" viewBox="0 0 136 45" fill="none" xmlns="http://www.w3.org/2000/svg">
<path d="M64.959 40.9229C64.959 40.5353 65.0265 40.1587 65.1642 39.785C65.2992 39.414 65.4991 39.0735 65.761 38.7689C66.023 38.4616 66.3416 38.218 66.717 38.038C67.095 37.8581 67.5217 37.7667 68.0051 37.7667C68.5722 37.7667 69.0637 37.8941 69.4796 38.1516C69.8927 38.4063 70.2033 38.7412 70.4058 39.151L69.485 39.8016C69.3796 39.5635 69.2446 39.3752 69.0772 39.2341C68.9098 39.0956 68.7288 38.996 68.5371 38.9406C68.3454 38.8852 68.1563 38.8548 67.9727 38.8548C67.6702 38.8548 67.4083 38.9184 67.1842 39.043C66.96 39.1676 66.7737 39.3309 66.6225 39.5331C66.4712 39.7352 66.3605 39.9622 66.2876 40.2113C66.2147 40.4605 66.1796 40.7097 66.1796 40.9616C66.1796 41.2412 66.2228 41.5098 66.3092 41.7673C66.3956 42.0247 66.5198 42.2545 66.6792 42.4539C66.8385 42.6532 67.0302 42.811 67.2544 42.9273C67.4785 43.0436 67.7216 43.1017 67.9889 43.1017C68.1806 43.1017 68.3751 43.0685 68.5722 43.0048C68.7693 42.9384 68.953 42.8359 69.1204 42.692C69.2878 42.548 69.4201 42.3653 69.512 42.1382L70.4949 42.7169C70.3734 43.0325 70.1736 43.2983 69.8981 43.5197C69.6227 43.7385 69.3148 43.9073 68.9719 44.0181C68.6289 44.1316 68.2913 44.187 67.9538 44.187C67.5136 44.187 67.1113 44.0928 66.744 43.9073C66.3794 43.7191 66.0635 43.4699 65.8015 43.1571C65.5369 42.8442 65.3317 42.4954 65.1831 42.105C65.0346 41.7147 64.959 41.3188 64.959 40.9229Z" fill="#D04E47"/>
<path d="M73.8567 44.1839C73.403 44.1839 72.9953 44.0953 72.6253 43.9154C72.258 43.7382 71.9421 43.4945 71.6774 43.19C71.4128 42.8827 71.2103 42.5394 71.0644 42.1546C70.9186 41.7725 70.8457 41.3766 70.8457 40.9724C70.8457 40.5516 70.9213 40.1474 71.0752 39.7653C71.2292 39.3805 71.4398 39.04 71.7098 38.741C71.9799 38.442 72.2985 38.2039 72.6658 38.0267C73.0331 37.8523 73.4381 37.7637 73.8783 37.7637C74.3239 37.7637 74.7317 37.855 75.1016 38.0405C75.4689 38.226 75.7848 38.4724 76.0441 38.7797C76.306 39.0898 76.5086 39.4331 76.6517 39.8152C76.7975 40.1944 76.8704 40.5876 76.8704 40.9918C76.8704 41.4071 76.7948 41.8085 76.6436 42.1906C76.4924 42.5754 76.2817 42.9159 76.0117 43.2149C75.7416 43.5139 75.423 43.752 75.0557 43.9237C74.6939 44.0981 74.2915 44.1839 73.8567 44.1839ZM72.0663 40.9752C72.0663 41.2493 72.1068 41.5123 72.1878 41.7697C72.2688 42.0245 72.3877 42.2542 72.5389 42.4508C72.6928 42.6501 72.8818 42.808 73.1033 42.9242C73.3274 43.0405 73.5813 43.0986 73.8648 43.0986C74.1538 43.0986 74.413 43.0377 74.6398 42.9159C74.8667 42.7941 75.053 42.6308 75.2042 42.4259C75.3555 42.221 75.4689 41.9912 75.5472 41.7393C75.6255 41.4874 75.666 41.2327 75.666 40.9779C75.666 40.7039 75.6228 40.4408 75.5391 40.1889C75.4554 39.937 75.3366 39.71 75.1826 39.5106C75.0287 39.3113 74.8397 39.1535 74.6182 39.0372C74.3941 38.9209 74.143 38.8628 73.8648 38.8628C73.5678 38.8628 73.3085 38.9237 73.0871 39.0455C72.8629 39.1673 72.6766 39.3307 72.5254 39.5328C72.3742 39.7349 72.2607 39.9619 72.1824 40.2111C72.1041 40.4575 72.0663 40.7122 72.0663 40.9752Z" fill="#D04E47"/>
<path d="M82.8362 44.1383V39.9827L81.2537 43.0779H80.584L79.0015 39.9827V44.1383H77.7998V37.8066H79.0879L80.9134 41.4085L82.7578 37.8066H84.0352V44.1383H82.8362Z" fill="#D04E47"/>
<path d="M85.3232 44.1383V37.8066H87.9427C88.2262 37.8066 88.4882 37.8648 88.7258 37.9838C88.9635 38.1029 89.1714 38.2635 89.3469 38.4656C89.5225 38.6677 89.6602 38.8947 89.7601 39.1438C89.8573 39.393 89.9086 39.6505 89.9086 39.9107C89.9086 40.2679 89.8276 40.6056 89.6656 40.9268C89.5036 41.2479 89.2794 41.5082 88.9959 41.7103C88.7123 41.9124 88.3748 42.012 87.9859 42.012H86.5249V44.1355H85.3232V44.1383ZM86.5222 40.9379H87.913C88.0588 40.9379 88.1884 40.8963 88.3046 40.8133C88.4207 40.7302 88.5125 40.6084 88.5827 40.4534C88.6529 40.2956 88.688 40.1156 88.688 39.9135C88.688 39.6948 88.6475 39.5065 88.5692 39.3515C88.4909 39.1965 88.3883 39.0802 88.264 39.0027C88.1398 38.9251 88.0048 38.8864 87.859 38.8864H86.5195V40.9379H86.5222Z" fill="#D04E47"/>
<path d="M91.9767 37.8076H93.1946L95.4657 44.1393H94.2316L93.7185 42.5612H91.4501L90.9343 44.1393H89.7002L91.9767 37.8076ZM93.4349 41.6974L92.5843 39.0839L91.7309 41.6974H93.4349Z" fill="#D04E47"/>
<path d="M97.3414 40.0713V44.1383H96.1396V37.8066H97.0956L100.288 41.9788V37.8149H101.489V44.1383H100.49L97.3414 40.0713Z" fill="#D04E47"/>
<path d="M103.475 37.8066L104.998 40.7856L106.546 37.8066H107.842L105.598 41.9262V44.1383H104.407V41.9096L102.171 37.8066H103.475Z" fill="#D04E47"/>
<path d="M33.1037 44.1412V39.9856L31.5213 43.0809H30.8516L29.2691 39.9856V44.1412H28.0674V37.8096H29.3555L31.181 41.4114L33.0254 37.8096H34.3027V44.1412H33.1037Z" fill="#D04E47"/>
<path d="M38.2268 44.1859C37.7732 44.1859 37.3654 44.0973 36.9954 43.9173C36.6282 43.7401 36.3122 43.4965 36.0476 43.192C35.7829 42.8847 35.5804 42.5414 35.4346 42.1565C35.2887 41.7745 35.2158 41.3786 35.2158 40.9744C35.2158 40.5535 35.2914 40.1493 35.4454 39.7673C35.5993 39.3852 35.8099 39.0419 36.08 38.7429C36.35 38.4439 36.6687 38.2058 37.0359 38.0286C37.4032 37.8542 37.8083 37.7656 38.2484 37.7656C38.694 37.7656 39.1018 37.857 39.4717 38.0425C39.839 38.228 40.155 38.4744 40.4142 38.7817C40.6761 39.0918 40.8787 39.4351 41.0218 39.8171C41.1676 40.1964 41.2405 40.5895 41.2405 40.9937C41.2405 41.409 41.1649 41.8105 41.0137 42.1925C40.8625 42.5773 40.6518 42.9179 40.3818 43.2169C40.1117 43.5159 39.7931 43.754 39.4258 43.9256C39.064 44.1 38.6616 44.1859 38.2268 44.1859ZM36.4364 40.9771C36.4364 41.2512 36.4769 41.5142 36.5579 41.7717C36.639 42.0264 36.7578 42.2562 36.909 42.4528C37.0629 42.6521 37.252 42.8099 37.4734 42.9262C37.6975 43.0425 37.9514 43.1006 38.2349 43.1006C38.5239 43.1006 38.7831 43.0397 39.01 42.9179C39.2368 42.7961 39.4231 42.6327 39.5744 42.4278C39.7256 42.223 39.839 41.9932 39.9173 41.7412C39.9956 41.4893 40.0361 41.2346 40.0361 40.9799C40.0361 40.7058 39.9929 40.4428 39.9092 40.1909C39.8255 39.9389 39.7067 39.7119 39.5528 39.5126C39.3988 39.3132 39.2098 39.1554 38.9884 39.0392C38.7642 38.9229 38.5131 38.8647 38.2349 38.8647C37.9379 38.8647 37.6786 38.9256 37.4572 39.0475C37.2331 39.1693 37.0467 39.3326 36.8955 39.5347C36.7443 39.7368 36.6309 39.9639 36.5525 40.213C36.4742 40.4594 36.4364 40.7141 36.4364 40.9771Z" fill="#D04E47"/>
<path d="M47.8135 44.1412V37.8096H49.0152V44.1412H47.8135Z" fill="#D04E47"/>
<path d="M51.4986 40.0742V44.1412H50.2969V37.8096H51.2528L54.4448 41.9818V37.8179H55.6465V44.1412H54.6473L51.4986 40.0742Z" fill="#D04E47"/>
<path d="M59.505 44.1876C59.1053 44.1876 58.7272 44.1046 58.3708 43.9385C58.0143 43.7724 57.7011 43.5426 57.431 43.2463C57.161 42.9529 56.9503 42.6096 56.7991 42.2165C56.6479 41.8233 56.5723 41.3997 56.5723 40.9402C56.5723 40.5055 56.6479 40.0985 56.7991 39.7137C56.9503 39.3289 57.161 38.9939 57.4337 38.7004C57.7065 38.4097 58.0251 38.1799 58.3897 38.0138C58.7542 37.8477 59.1512 37.7646 59.5806 37.7646C60.1612 37.7646 60.6581 37.892 61.0712 38.1439C61.4871 38.3959 61.7977 38.7309 62.0056 39.1461L61.109 39.8244C60.9524 39.5088 60.7337 39.268 60.4528 39.1018C60.172 38.9357 59.8668 38.8527 59.5347 38.8527C59.2727 38.8527 59.0351 38.9081 58.8217 39.0216C58.6084 39.1351 58.4221 39.2901 58.2654 39.4839C58.1088 39.6777 57.9873 39.9075 57.9036 40.1622C57.8199 40.4169 57.7767 40.6882 57.7767 40.9734C57.7767 41.2779 57.8226 41.5548 57.9117 41.8122C58.0008 42.067 58.1277 42.2912 58.2952 42.4822C58.4599 42.6733 58.6543 42.8228 58.8731 42.9335C59.0945 43.0442 59.3375 43.0996 59.6049 43.0996C59.9181 43.0996 60.2179 43.0166 60.5041 42.8504C60.7904 42.6843 61.0604 42.4407 61.3089 42.1196V43.3322C60.7985 43.9025 60.1936 44.1876 59.505 44.1876ZM61.2279 41.7901H59.9829V40.8903H62.2189V44.1461H61.2279V41.7901Z" fill="#D04E47"/>
<path d="M47.9208 35.6792L47.0837 34.2451L45.8117 35.5352L46.2546 35.5629L44.2374 42.6808L42.5658 37.811H41.3047L43.6541 44.1426H44.8099L47.4833 35.6432L47.9208 35.6792Z" fill="#D04E47"/>
<path d="M131.125 25.6893H121.501V21.8466H130.056V22.9014L134.835 19.0974L130.056 15.2962V16.4258H121.501V12.9928H131.125V13.9286L135.908 10.1274L131.125 6.32617V7.1595H114.974V31.5226H131.125V32.4833L135.908 28.6821L131.125 24.8781V25.6893Z" fill="white"/>
<path d="M53.6338 31.4739V7.28516H64.468C65.6184 7.28516 66.6824 7.52325 67.6573 7.99944C68.6321 8.47562 69.4747 9.11793 70.1822 9.92357C70.8897 10.7292 71.4379 11.6318 71.8268 12.6312C72.2129 13.6306 72.4074 14.6412 72.4074 15.6627C72.4074 16.593 72.2751 17.49 72.0077 18.3538C71.7431 19.2175 71.3542 20.0066 70.8438 20.7209C70.3334 21.4351 69.7258 22.0553 69.0156 22.5786L74.0006 31.4711H66.8903L62.737 24.0431H60.1122V31.4711H53.6338V31.4739ZM60.1122 18.2541H64.2007C64.4653 18.2541 64.7219 18.1517 64.9649 17.9468C65.2079 17.7419 65.4132 17.4485 65.5806 17.0609C65.748 16.676 65.8291 16.2081 65.8291 15.6627C65.8291 15.0952 65.7345 14.6245 65.5455 14.248C65.3565 13.8743 65.1242 13.5836 64.8488 13.3787C64.5706 13.1738 64.3006 13.0714 64.0359 13.0714H60.1149V18.2541H60.1122Z" fill="white"/>
<path d="M76.0635 31.4739V7.28516H82.5446V31.4739H76.0635Z" fill="white"/>
<path d="M104.444 31.4739V18.733L100.491 27.692H97.0342L93.0807 18.733V31.4739H86.5996V7.28516H93.6775L98.7625 18.6638L103.88 7.28516H110.925V31.4739H104.444Z" fill="white"/>
<path d="M8.11938 31.7632C9.4048 31.7632 10.8765 30.6807 11.4085 29.3435C11.9405 28.0063 11.3329 26.9238 10.0475 26.9238H7.76292C6.4775 26.9238 5.00575 28.0063 4.47376 29.3435C4.20641 30.0107 4.22532 30.6171 4.47376 31.0545C4.7195 31.4919 5.19478 31.7632 5.83479 31.7632H8.11938Z" fill="white"/>
<path d="M3.48264 7.28516C2.19723 7.28516 0.725476 8.36765 0.193485 9.70485C-0.0738601 10.3721 -0.0549569 10.9784 0.193485 11.4158C0.439227 11.8532 0.914507 12.1246 1.55452 12.1246H3.8391C5.12452 12.1246 6.59627 11.0421 7.12826 9.70485C7.66025 8.36765 7.05265 7.28516 5.76723 7.28516H3.48264Z" fill="white"/>
<path d="M11.5546 21.7974C12.1973 21.7974 12.8859 21.5261 13.4827 21.0887C14.0768 20.6512 14.5791 20.0449 14.8464 19.3777C15.3784 18.0405 14.7708 16.958 13.4854 16.958H4.64679C3.36137 16.958 1.88962 18.0405 1.35763 19.3777C0.825642 20.7149 1.43324 21.7974 2.71866 21.7974H11.5546Z" fill="white"/>
<path d="M50.459 12.6341C50.0701 11.6347 49.5219 10.7321 48.8144 9.9265C48.1042 9.12086 47.2643 8.47856 46.2895 8.00237C45.3146 7.52618 44.2506 7.28809 43.1002 7.28809H32.933H30.8671H26.0306H23.3032H21.0267H18.9689H17.0435H11.17C10.5273 7.28809 9.83867 7.5594 9.24187 7.99683C8.64777 8.43426 8.14548 9.04058 7.87814 9.70779C7.34615 11.045 7.95375 12.1275 9.23917 12.1275H14.3565H15.9633H17.5944H19.2633H20.9862H22.782H24.7128H26.9137H30.0678H30.219C31.0724 12.1275 31.626 12.6064 31.7448 13.3207C31.8069 13.6806 31.7583 14.0987 31.5801 14.5472C31.5288 14.6718 31.4693 14.7936 31.4045 14.9154C31.121 15.4359 30.7024 15.901 30.219 16.2582C29.7086 16.6347 29.128 16.8838 28.5691 16.9503C28.4772 16.9614 28.3827 16.9669 28.2909 16.9669H26.8786H25.288H23.7352H22.2041H20.681H19.455C19.3605 16.9669 19.2633 16.9752 19.1661 16.9863C18.626 17.0499 18.067 17.2908 17.5701 17.6452C17.5566 17.6563 17.5404 17.6646 17.5269 17.6756C16.9328 18.1131 16.4305 18.7194 16.1631 19.3866C16.0794 19.5942 16.0281 19.7936 15.9984 19.9846C15.9525 20.2919 15.9687 20.5743 16.047 20.8235C16.2334 21.4187 16.7572 21.8035 17.5215 21.8035H17.6565H19.1661H20.6756H22.1987H23.7298H25.2826H26.8732H28.5501H30.5242H32.9222V26.6402C32.3254 26.6485 32.5198 26.6402 32.3254 26.6402H30.0597H26.9056H24.7047H22.7739H20.9781H19.2552H17.5863H15.9552H15.5879C15.2153 26.6402 14.8264 26.7343 14.4484 26.8976C13.5275 27.2935 12.6769 28.113 12.2988 29.0599C11.7668 30.3971 12.3744 31.4796 13.6598 31.4796H17.03H18.9554H21.0132H23.2897H26.0171H30.8536H32.9195H33.7944H36.5732H39.3979V24.0516H43.2514C44.8015 24.0516 46.1598 23.6474 47.321 22.8417C48.4849 22.0361 49.3923 20.9979 50.0458 19.7244C50.6993 18.4536 51.0261 17.1025 51.0261 15.6712C51.0396 14.6441 50.8451 13.6336 50.459 12.6341ZM44.2101 17.1995C44.0427 17.587 43.8401 17.8584 43.5944 18.0162C43.3514 18.174 43.0948 18.2543 42.8302 18.2543H39.4087V13.0771H42.6654C42.9301 13.0771 43.2028 13.1519 43.4783 13.2986C43.7537 13.4453 43.9887 13.7083 44.175 14.0821C44.364 14.4558 44.4585 14.9846 44.4585 15.6657C44.4612 16.3024 44.3775 16.8119 44.2101 17.1995Z" fill="white"/>
<path d="M102.997 3.47786C102.864 2.86048 102.611 2.30123 102.243 1.79459C101.841 1.23811 101.336 0.797919 100.734 0.482306C99.956 0.0725621 99.1297 -0.0658688 98.2629 0.0282614C98.2493 0.03103 98.2331 0.0338009 98.2196 0.0393379C97.982 0.0587177 97.7498 0.114085 97.5202 0.183299C97.0584 0.324494 96.6318 0.540448 96.2402 0.831144C95.611 1.29626 95.1357 1.89149 94.8144 2.61408C94.5254 3.26192 94.3985 3.94298 94.439 4.65172C94.4525 4.92304 94.4957 5.19159 94.5659 5.45183C94.5686 5.47675 94.5713 5.50166 94.5794 5.52381C94.6901 5.95293 94.8306 6.37375 95.0061 6.77796C95.2167 7.26522 95.4355 7.74972 95.6704 8.22591C96.1538 9.2032 96.6912 10.1528 97.261 11.0803C97.6876 11.7779 98.1332 12.4645 98.5707 13.1539C98.622 13.237 98.6814 13.3145 98.7381 13.392C98.757 13.392 98.7732 13.392 98.7921 13.392C98.8002 13.3782 98.8083 13.3671 98.8191 13.3532C98.8272 13.3449 98.838 13.3394 98.8434 13.3311C98.9434 13.1816 99.0433 13.0376 99.1378 12.8854C99.5564 12.2209 99.9803 11.5592 100.388 10.8892C100.645 10.4712 100.882 10.0421 101.123 9.61571C101.566 8.82944 101.981 8.02934 102.349 7.20154C102.546 6.75581 102.721 6.30454 102.864 5.83666C102.913 5.67885 102.945 5.51827 102.983 5.3577C102.986 5.34939 102.991 5.34109 102.994 5.33278C103.132 4.7154 103.132 4.09802 102.997 3.47786ZM98.3763 10.0587C98.298 9.99223 98.2196 9.92855 98.1413 9.85934C98.2196 9.92855 98.298 9.995 98.3763 10.0587ZM100.815 4.6185C100.736 5.18882 100.466 5.65394 100.021 6.00554C99.6104 6.32946 99.1459 6.47342 98.6274 6.44297C98.6112 6.44297 98.595 6.44297 98.5788 6.44297C98.5491 6.4402 98.5194 6.43466 98.4897 6.43189C98.4816 6.43189 98.4762 6.42913 98.4681 6.42913C98.325 6.39037 98.1791 6.35991 98.0414 6.30731C97.6931 6.17719 97.4014 5.96401 97.1692 5.67054C96.8424 5.2608 96.6777 4.78738 96.6966 4.25859C96.7209 3.58583 96.9963 3.03767 97.5148 2.62239C97.8119 2.38429 98.1494 2.24587 98.5221 2.1988C98.5302 2.1988 98.541 2.19326 98.5491 2.19049C98.703 2.19326 98.8569 2.18219 99.0082 2.1988C99.4321 2.2431 99.8075 2.41474 100.123 2.70544C100.677 3.21762 100.917 3.85715 100.815 4.6185Z" fill="#D04E47"/>
</svg>
