<svg width="99" height="33" viewBox="0 0 99 33" fill="none" xmlns="http://www.w3.org/2000/svg">
<path d="M47.3184 30.1132C47.3184 29.8309 47.3675 29.5566 47.4679 29.2844C47.5662 29.0141 47.7118 28.7661 47.9026 28.5443C48.0934 28.3204 48.3255 28.1429 48.5989 28.0118C48.8743 27.8808 49.1851 27.8142 49.5373 27.8142C49.9503 27.8142 50.3084 27.907 50.6113 28.0945C50.9123 28.2801 51.1385 28.5241 51.286 28.8226L50.6152 29.2965C50.5385 29.123 50.4402 28.9859 50.3182 28.8831C50.1962 28.7822 50.0644 28.7096 49.9248 28.6693C49.7851 28.629 49.6474 28.6068 49.5136 28.6068C49.2933 28.6068 49.1025 28.6532 48.9393 28.7439C48.776 28.8347 48.6403 28.9536 48.5301 29.1009C48.4199 29.2481 48.3393 29.4135 48.2862 29.595C48.2331 29.7765 48.2075 29.958 48.2075 30.1415C48.2075 30.3452 48.239 30.5408 48.3019 30.7283C48.3649 30.9159 48.4553 31.0833 48.5714 31.2285C48.6875 31.3737 48.8271 31.4886 48.9904 31.5733C49.1537 31.658 49.3307 31.7004 49.5255 31.7004C49.6651 31.7004 49.8067 31.6762 49.9503 31.6298C50.0939 31.5814 50.2277 31.5068 50.3497 31.4019C50.4716 31.297 50.568 31.1639 50.6349 30.9986L51.3509 31.4201C51.2624 31.65 51.1168 31.8436 50.9162 32.0049C50.7156 32.1642 50.4913 32.2872 50.2415 32.3679C49.9917 32.4506 49.7458 32.4909 49.4999 32.4909C49.1792 32.4909 48.8861 32.4224 48.6186 32.2872C48.3531 32.1501 48.1229 31.9686 47.9321 31.7407C47.7393 31.5128 47.5898 31.2587 47.4816 30.9744C47.3734 30.69 47.3184 30.4016 47.3184 30.1132Z" fill="#D04E47"/>
<path d="M53.7998 32.4887C53.4693 32.4887 53.1723 32.4242 52.9028 32.2931C52.6352 32.164 52.4051 31.9866 52.2123 31.7647C52.0195 31.5409 51.872 31.2908 51.7658 31.0105C51.6596 30.7322 51.6064 30.4438 51.6064 30.1494C51.6064 29.8428 51.6615 29.5484 51.7736 29.2701C51.8858 28.9898 52.0392 28.7417 52.2359 28.5239C52.4326 28.3061 52.6647 28.1327 52.9323 28.0036C53.1998 27.8765 53.4949 27.812 53.8155 27.812C54.1401 27.812 54.4371 27.8786 54.7066 28.0137C54.9741 28.1488 55.2043 28.3283 55.3931 28.5521C55.5839 28.778 55.7315 29.0281 55.8357 29.3064C55.9419 29.5827 55.9951 29.869 55.9951 30.1635C55.9951 30.466 55.94 30.7584 55.8298 31.0367C55.7197 31.317 55.5662 31.5651 55.3695 31.7829C55.1728 32.0007 54.9407 32.1741 54.6732 32.2992C54.4096 32.4262 54.1165 32.4887 53.7998 32.4887ZM52.4956 30.1514C52.4956 30.351 52.5251 30.5426 52.5841 30.7302C52.6431 30.9157 52.7297 31.0831 52.8398 31.2263C52.9519 31.3715 53.0896 31.4864 53.2509 31.5711C53.4142 31.6558 53.5991 31.6982 53.8057 31.6982C54.0161 31.6982 54.205 31.6538 54.3702 31.5651C54.5355 31.4764 54.6712 31.3574 54.7813 31.2081C54.8915 31.0589 54.9741 30.8915 55.0312 30.708C55.0882 30.5245 55.1177 30.3389 55.1177 30.1534C55.1177 29.9537 55.0862 29.7622 55.0253 29.5786C54.9643 29.3951 54.8777 29.2298 54.7656 29.0846C54.6535 28.9394 54.5158 28.8244 54.3545 28.7397C54.1912 28.655 54.0083 28.6126 53.8057 28.6126C53.5893 28.6126 53.4004 28.657 53.2391 28.7457C53.0759 28.8345 52.9401 28.9535 52.83 29.1007C52.7198 29.2479 52.6372 29.4133 52.5802 29.5948C52.5231 29.7743 52.4956 29.9598 52.4956 30.1514Z" fill="#D04E47"/>
<path d="M60.3405 32.4559V29.4289L59.1878 31.6835H58.7L57.5472 29.4289V32.4559H56.6719V27.8438H57.6102L58.9399 30.4675L60.2835 27.8438H61.2139V32.4559H60.3405Z" fill="#D04E47"/>
<path d="M62.1523 32.4559V27.8438H64.0604C64.267 27.8438 64.4578 27.8861 64.6309 27.9728C64.804 28.0595 64.9555 28.1765 65.0833 28.3237C65.2112 28.4709 65.3115 28.6363 65.3843 28.8178C65.4551 28.9993 65.4925 29.1869 65.4925 29.3764C65.4925 29.6366 65.4335 29.8826 65.3155 30.1166C65.1974 30.3505 65.0342 30.5401 64.8276 30.6873C64.6211 30.8345 64.3752 30.9071 64.0919 30.9071H63.0277V32.4539H62.1523V32.4559ZM63.0257 30.1246H64.0388C64.145 30.1246 64.2394 30.0944 64.324 30.0339C64.4086 29.9734 64.4755 29.8846 64.5266 29.7717C64.5778 29.6568 64.6034 29.5257 64.6034 29.3785C64.6034 29.2191 64.5738 29.082 64.5168 28.9691C64.4598 28.8561 64.385 28.7714 64.2945 28.715C64.204 28.6585 64.1057 28.6303 63.9995 28.6303H63.0238V30.1246H63.0257Z" fill="#D04E47"/>
<path d="M66.9991 27.8438H67.8863L69.5406 32.4559H68.6416L68.2679 31.3064H66.6155L66.2398 32.4559H65.3408L66.9991 27.8438ZM68.0613 30.6772L67.4417 28.7734L66.8201 30.6772H68.0613Z" fill="#D04E47"/>
<path d="M70.9069 29.4934V32.4559H70.0315V27.8438H70.7279L73.053 30.8829V27.8498H73.9283V32.4559H73.2005L70.9069 29.4934Z" fill="#D04E47"/>
<path d="M75.3749 27.8438L76.4844 30.0137L77.6115 27.8438H78.5557L76.9211 30.8446V32.4559H76.0536V30.8325L74.4248 27.8438H75.3749Z" fill="#D04E47"/>
<path d="M24.1154 32.4574V29.4303L22.9627 31.685H22.4749L21.3221 29.4303V32.4574H20.4468V27.8452H21.3851L22.7148 30.4689L24.0584 27.8452H24.9888V32.4574H24.1154Z" fill="#D04E47"/>
<path d="M27.8469 32.4892C27.5164 32.4892 27.2194 32.4247 26.9499 32.2936C26.6824 32.1645 26.4522 31.9871 26.2594 31.7652C26.0667 31.5414 25.9191 31.2913 25.8129 31.011C25.7067 30.7327 25.6536 30.4443 25.6536 30.1499C25.6536 29.8433 25.7086 29.5489 25.8208 29.2706C25.9329 28.9923 26.0863 28.7422 26.283 28.5244C26.4797 28.3066 26.7119 28.1332 26.9794 28.0041C27.2469 27.877 27.542 27.8125 27.8626 27.8125C28.1872 27.8125 28.4842 27.8791 28.7537 28.0142C29.0212 28.1493 29.2514 28.3288 29.4402 28.5526C29.6311 28.7785 29.7786 29.0286 29.8828 29.3069C29.9891 29.5832 30.0422 29.8695 30.0422 30.164C30.0422 30.4665 29.9871 30.7589 29.8769 31.0372C29.7668 31.3175 29.6133 31.5656 29.4166 31.7834C29.2199 32.0012 28.9878 32.1746 28.7203 32.2996C28.4567 32.4267 28.1636 32.4892 27.8469 32.4892ZM26.5427 30.1519C26.5427 30.3515 26.5722 30.5431 26.6312 30.7307C26.6902 30.9162 26.7768 31.0836 26.8869 31.2268C26.9991 31.372 27.1368 31.4869 27.2981 31.5716C27.4613 31.6563 27.6462 31.6987 27.8528 31.6987C28.0633 31.6987 28.2521 31.6543 28.4173 31.5656C28.5826 31.4768 28.7183 31.3579 28.8285 31.2086C28.9386 31.0594 29.0212 30.892 29.0783 30.7085C29.1353 30.525 29.1648 30.3394 29.1648 30.1539C29.1648 29.9542 29.1334 29.7626 29.0724 29.5791C29.0114 29.3956 28.9249 29.2302 28.8127 29.085C28.7006 28.9398 28.5629 28.8249 28.4016 28.7402C28.2383 28.6555 28.0554 28.6131 27.8528 28.6131C27.6364 28.6131 27.4476 28.6575 27.2863 28.7462C27.123 28.835 26.9873 28.954 26.8771 29.1012C26.7669 29.2484 26.6843 29.4138 26.6273 29.5953C26.5702 29.7748 26.5427 29.9603 26.5427 30.1519Z" fill="#D04E47"/>
<path d="M34.8303 32.4574V27.8452H35.7057V32.4574H34.8303Z" fill="#D04E47"/>
<path d="M37.5143 29.4949V32.4574H36.6389V27.8452H37.3353L39.6604 30.8844V27.8513H40.5358V32.4574H39.8079L37.5143 29.4949Z" fill="#D04E47"/>
<path d="M43.3465 32.4898C43.0553 32.4898 42.78 32.4293 42.5203 32.3083C42.2606 32.1873 42.0325 32.0199 41.8357 31.8041C41.639 31.5903 41.4856 31.3403 41.3754 31.0539C41.2653 30.7675 41.2102 30.459 41.2102 30.1242C41.2102 29.8076 41.2653 29.5111 41.3754 29.2308C41.4856 28.9505 41.639 28.7064 41.8377 28.4927C42.0364 28.2809 42.2685 28.1135 42.5341 27.9925C42.7996 27.8715 43.0888 27.811 43.4016 27.811C43.8245 27.811 44.1864 27.9038 44.4874 28.0873C44.7903 28.2708 45.0166 28.5149 45.168 28.8174L44.5149 29.3115C44.4008 29.0816 44.2415 28.9061 44.0369 28.7851C43.8324 28.6641 43.6101 28.6036 43.3681 28.6036C43.1773 28.6036 43.0042 28.6439 42.8488 28.7266C42.6934 28.8093 42.5577 28.9222 42.4436 29.0634C42.3295 29.2046 42.241 29.372 42.18 29.5575C42.119 29.743 42.0875 29.9407 42.0875 30.1484C42.0875 30.3702 42.121 30.5719 42.1859 30.7594C42.2508 30.945 42.3433 31.1083 42.4652 31.2475C42.5852 31.3866 42.7268 31.4955 42.8862 31.5762C43.0475 31.6569 43.2245 31.6972 43.4193 31.6972C43.6474 31.6972 43.8658 31.6367 44.0743 31.5157C44.2828 31.3947 44.4795 31.2172 44.6605 30.9833V31.8666C44.2887 32.282 43.8481 32.4898 43.3465 32.4898ZM44.6015 30.7433H43.6947V30.0879H45.3234V32.4595H44.6015V30.7433Z" fill="#D04E47"/>
<path d="M34.9085 26.2927L34.2987 25.248L33.3722 26.1878L33.6948 26.208L32.2254 31.3929L31.0077 27.8455H30.0891L31.8005 32.4577H32.6424L34.5898 26.2665L34.9085 26.2927Z" fill="#D04E47"/>
<path d="M95.516 19.0159H88.5052V16.2167H94.737V16.9851L98.2188 14.2142L94.737 11.4452V12.268H88.5052V9.76734H95.516V10.449L98.9997 7.68006L95.516 4.91113V5.51816H83.7507V23.2651H95.516V23.9649L98.9997 21.196L95.516 18.425V19.0159Z" fill="#2A3D5E"/>
<path d="M39.0684 23.2288V5.60889H46.9604C47.7984 5.60889 48.5734 5.78232 49.2835 6.12919C49.9937 6.47606 50.6074 6.94394 51.1228 7.5308C51.6382 8.11766 52.0375 8.7751 52.3207 9.50313C52.602 10.2312 52.7437 10.9672 52.7437 11.7114C52.7437 12.389 52.6473 13.0424 52.4525 13.6716C52.2598 14.3008 51.9765 14.8756 51.6047 15.3959C51.2329 15.9162 50.7903 16.368 50.273 16.7491L53.9043 23.2267H48.7249L45.6995 17.8159H43.7874V23.2267H39.0684V23.2288ZM43.7874 13.599H46.7656C46.9584 13.599 47.1453 13.5244 47.3223 13.3752C47.4994 13.2259 47.6489 13.0122 47.7708 12.7298C47.8928 12.4495 47.9518 12.1087 47.9518 11.7114C47.9518 11.298 47.883 10.9551 47.7453 10.6809C47.6076 10.4086 47.4384 10.1969 47.2377 10.0476C47.0351 9.89839 46.8384 9.82378 46.6456 9.82378H43.7894V13.599H43.7874Z" fill="#2A3D5E"/>
<path d="M55.4072 23.2288V5.60889H60.1283V23.2288H55.4072Z" fill="#2A3D5E"/>
<path d="M76.0807 23.2288V13.9479L73.2008 20.474H70.6829L67.8031 13.9479V23.2288H63.082V5.60889H68.2378L71.9419 13.8975L75.6695 5.60889H80.8017V23.2288H76.0807Z" fill="#2A3D5E"/>
<path d="M5.9147 23.44C6.85104 23.44 7.92311 22.6514 8.31063 21.6774C8.69815 20.7033 8.25555 19.9148 7.31921 19.9148H5.65504C4.7187 19.9148 3.64662 20.7033 3.25911 21.6774C3.06436 22.1634 3.07813 22.6051 3.25911 22.9237C3.43811 23.2423 3.78432 23.44 4.25053 23.44H5.9147Z" fill="#2A3D5E"/>
<path d="M2.53688 5.60889C1.60053 5.60889 0.528461 6.39741 0.140941 7.37148C-0.0538022 7.8575 -0.0400325 8.29916 0.140941 8.61779C0.319948 8.93643 0.666158 9.13407 1.13236 9.13407H2.79653C3.73288 9.13407 4.80495 8.34554 5.19247 7.37148C5.57999 6.39741 5.13739 5.60889 4.20105 5.60889H2.53688Z" fill="#2A3D5E"/>
<path d="M8.41671 16.1805C8.88488 16.1805 9.3865 15.9828 9.82123 15.6642C10.254 15.3455 10.6199 14.9039 10.8146 14.4179C11.2021 13.4438 10.7595 12.6553 9.82319 12.6553H3.38486C2.44852 12.6553 1.37644 13.4438 0.988924 14.4179C0.601404 15.3919 1.044 16.1805 1.98035 16.1805H8.41671Z" fill="#2A3D5E"/>
<path d="M36.7562 9.50508C36.473 8.77705 36.0737 8.11961 35.5583 7.53275C35.0409 6.94589 34.4292 6.47802 33.719 6.13115C33.0089 5.78428 32.2339 5.61084 31.3959 5.61084H23.9897H22.4849H18.9618H16.975H15.3168H13.8178H12.4153H8.13683C7.66865 5.61084 7.16704 5.80848 6.73231 6.12711C6.29955 6.44575 5.93367 6.88741 5.73892 7.37344C5.3514 8.3475 5.794 9.13603 6.73035 9.13603H10.458H11.6284H12.8166H14.0322H15.2873H16.5954H18.0019H19.605H21.9026H22.0128C22.6344 9.13603 23.0376 9.48491 23.1242 10.0052C23.1694 10.2674 23.134 10.5719 23.0042 10.8986C22.9668 10.9894 22.9236 11.0781 22.8763 11.1668C22.6698 11.546 22.3649 11.8848 22.0128 12.1449C21.641 12.4192 21.2181 12.6007 20.8109 12.6491C20.744 12.6572 20.6752 12.6612 20.6083 12.6612H19.5795H18.4208H17.2898H16.1744H15.065H14.1719C14.1031 12.6612 14.0322 12.6673 13.9614 12.6753C13.568 12.7217 13.1608 12.8972 12.7989 13.1553C12.789 13.1634 12.7772 13.1694 12.7674 13.1775C12.3346 13.4961 11.9687 13.9378 11.774 14.4238C11.713 14.5751 11.6756 14.7203 11.654 14.8594C11.6206 15.0833 11.6324 15.289 11.6894 15.4705C11.8251 15.9041 12.2068 16.1844 12.7635 16.1844H12.8618H13.9614H15.061H16.1705H17.2858H18.4169H19.5755H20.7971H22.2351H23.9819V19.7075C23.5471 19.7136 23.6888 19.7075 23.5471 19.7075H21.8967H19.5991H17.996H16.5895H15.2814H14.0263H12.8107H11.6225H11.355C11.0835 19.7075 10.8003 19.7761 10.5249 19.8951C9.85411 20.1835 9.23447 20.7804 8.95908 21.4701C8.57156 22.4442 9.01415 23.2327 9.9505 23.2327H12.4054H13.808H15.3069H16.9652H18.952H22.4751H23.9799H24.6172H26.6414H28.699V17.8219H31.506C32.6352 17.8219 33.6246 17.5275 34.4705 16.9406C35.3183 16.3538 35.9792 15.5975 36.4553 14.6698C36.9313 13.7442 37.1693 12.76 37.1693 11.7174C37.1792 10.9692 37.0375 10.2331 36.7562 9.50508ZM32.2044 12.8306C32.0824 13.113 31.9349 13.3106 31.7559 13.4255C31.5788 13.5405 31.3919 13.599 31.1992 13.599H28.7068V9.82775H31.0792C31.2719 9.82775 31.4706 9.88221 31.6713 9.98909C31.8719 10.096 32.0431 10.2876 32.1788 10.5598C32.3165 10.8321 32.3853 11.2173 32.3853 11.7134C32.3873 12.1772 32.3263 12.5483 32.2044 12.8306Z" fill="#2A3D5E"/>
<path d="M75.0262 2.83613C74.9298 2.38641 74.7449 1.97903 74.4774 1.60997C74.1843 1.20462 73.8165 0.883965 73.3778 0.654062C72.8113 0.355591 72.2093 0.254753 71.5779 0.323321C71.5681 0.325338 71.5563 0.327356 71.5464 0.331389C71.3733 0.345506 71.2041 0.385838 71.0369 0.436255C70.7006 0.539107 70.3898 0.696415 70.1045 0.908168C69.6462 1.24697 69.3 1.68056 69.0659 2.20692C68.8554 2.67883 68.763 3.17493 68.7925 3.69121C68.8023 3.88884 68.8338 4.08446 68.8849 4.27403C68.8869 4.29218 68.8889 4.31033 68.8948 4.32646C68.9754 4.63905 69.0777 4.94559 69.2056 5.24003C69.359 5.59497 69.5183 5.94789 69.6895 6.29476C70.0416 7.00666 70.433 7.69838 70.8481 8.37397C71.1589 8.88218 71.4835 9.38232 71.8021 9.88448C71.8395 9.94498 71.8828 10.0014 71.9241 10.0579C71.9379 10.0579 71.9497 10.0579 71.9634 10.0579C71.9693 10.0478 71.9752 10.0398 71.9831 10.0297C71.989 10.0236 71.9969 10.0196 72.0008 10.0135C72.0736 9.90465 72.1464 9.79978 72.2152 9.68886C72.5201 9.20485 72.829 8.72286 73.126 8.23482C73.3129 7.9303 73.486 7.61771 73.6611 7.30714C73.9837 6.7344 74.2866 6.15157 74.5541 5.54858C74.6977 5.22389 74.8256 4.89517 74.9298 4.55435C74.9652 4.4394 74.9888 4.32243 75.0164 4.20546C75.0184 4.19941 75.0223 4.19336 75.0243 4.18731C75.1246 3.73759 75.1246 3.28787 75.0262 2.83613ZM71.6605 7.62981C71.6035 7.58141 71.5464 7.53503 71.4894 7.48461C71.5464 7.53503 71.6035 7.58343 71.6605 7.62981ZM73.4368 3.66701C73.3798 4.08245 73.183 4.42125 72.8585 4.67737C72.5595 4.91333 72.2211 5.01819 71.8434 4.99601C71.8316 4.99601 71.8198 4.99601 71.808 4.99601C71.7864 4.99399 71.7648 4.98996 71.7431 4.98794C71.7372 4.98794 71.7333 4.98593 71.7274 4.98593C71.6231 4.95769 71.5169 4.93551 71.4166 4.89719C71.1628 4.80241 70.9504 4.64712 70.7812 4.43335C70.5432 4.13488 70.4232 3.79002 70.437 3.40483C70.4547 2.91478 70.6553 2.51547 71.033 2.21297C71.2494 2.03953 71.4953 1.9387 71.7667 1.90442C71.7726 1.90442 71.7805 1.90038 71.7864 1.89836C71.8985 1.90038 72.0107 1.89232 72.1208 1.90442C72.4296 1.93668 72.7031 2.06172 72.9332 2.27347C73.3365 2.64656 73.5116 3.11242 73.4368 3.66701Z" fill="#D04E47"/>
</svg>
