<svg width="21" height="17" viewBox="0 0 21 17" fill="none" xmlns="http://www.w3.org/2000/svg">
<path fill-rule="evenodd" clip-rule="evenodd" d="M7.5306 9.9007L10.5021 11.9324L13.3665 9.95635L19.7872 16.291C19.6178 16.3463 19.4387 16.3743 19.2496 16.375H1.75035C1.51935 16.375 1.29885 16.3298 1.0962 16.249L7.5306 9.9007ZM21 4.6948V14.6247C21 14.884 20.9433 15.1297 20.8425 15.3512L14.5488 9.14155L21 4.6948ZM0 4.75045L6.3441 9.08905L0.1113 15.24C0.0382859 15.043 0.000607942 14.8347 0 14.6247L0 4.75045ZM19.2496 0.625C20.2156 0.625 21 1.4083 21 2.37535V2.99065L10.4979 10.2304L0 3.0505V2.37535C0 1.40935 0.7833 0.625 1.75035 0.625H19.2496Z" fill="white"/>
</svg>
