<svg width="13" height="11" viewBox="0 0 13 11" fill="none" xmlns="http://www.w3.org/2000/svg">
<path d="M5.6875 10.375C5.6875 10.375 4.875 10.375 4.875 9.5625C4.875 8.75 5.6875 6.3125 8.9375 6.3125C12.1875 6.3125 13 8.75 13 9.5625C13 10.375 12.1875 10.375 12.1875 10.375H5.6875ZM8.9375 5.5C9.58397 5.5 10.204 5.24319 10.6611 4.78607C11.1182 4.32895 11.375 3.70897 11.375 3.0625C11.375 2.41603 11.1182 1.79605 10.6611 1.33893C10.204 0.881807 9.58397 0.625 8.9375 0.625C8.29103 0.625 7.67105 0.881807 7.21393 1.33893C6.75681 1.79605 6.5 2.41603 6.5 3.0625C6.5 3.70897 6.75681 4.32895 7.21393 4.78607C7.67105 5.24319 8.29103 5.5 8.9375 5.5ZM4.238 10.375C4.11761 10.1213 4.05754 9.84325 4.0625 9.5625C4.0625 8.46156 4.615 7.32812 5.6355 6.54C5.12621 6.38273 4.59548 6.30597 4.0625 6.3125C0.8125 6.3125 0 8.75 0 9.5625C0 10.375 0.8125 10.375 0.8125 10.375H4.238ZM3.65625 5.5C4.19497 5.5 4.71163 5.28599 5.09256 4.90506C5.47349 4.52413 5.6875 4.00747 5.6875 3.46875C5.6875 2.93003 5.47349 2.41337 5.09256 2.03244C4.71163 1.65151 4.19497 1.4375 3.65625 1.4375C3.11753 1.4375 2.60087 1.65151 2.21994 2.03244C1.83901 2.41337 1.625 2.93003 1.625 3.46875C1.625 4.00747 1.83901 4.52413 2.21994 4.90506C2.60087 5.28599 3.11753 5.5 3.65625 5.5Z" fill="#2A3D5E"/>
</svg>
