<svg width="19" height="19" viewBox="0 0 19 19" fill="none" xmlns="http://www.w3.org/2000/svg">
<g clip-path="url(#clip0_1381_841)">
<path d="M17.9099 15.8416C17.7967 16.349 17.5161 16.8036 17.1132 17.1322C16.673 17.5786 16.1485 17.9332 15.5702 18.1751C14.9918 18.4171 14.3712 18.5418 13.7442 18.5418H13.4513C12.1355 18.4704 10.8471 18.1373 9.66145 17.5621H9.65244C9.37755 17.4341 9.09365 17.3062 8.81876 17.1502C7.43477 16.3742 6.16534 15.4097 5.04692 14.2842C3.59546 12.9209 2.40438 11.3047 1.53194 9.51463C1.06828 8.53363 0.7588 7.48694 0.61444 6.41154C0.402155 5.28585 0.529853 4.12244 0.981259 3.0696C1.26624 2.59461 1.6143 2.16045 2.01592 1.77898C2.19664 1.57461 2.41759 1.40974 2.66494 1.29467C2.91229 1.1796 3.18073 1.11681 3.45346 1.11023C3.75007 1.14301 4.03722 1.23438 4.29823 1.37904C4.55924 1.5237 4.78891 1.71877 4.97391 1.95292C5.3858 2.40086 5.88871 2.86772 6.30149 3.29853L6.8693 3.85732C7.20277 4.15294 7.40916 4.56572 7.44612 5.01095C7.44612 5.41923 7.2956 5.81309 7.02432 6.11862C6.84863 6.33231 6.66212 6.53686 6.46553 6.73149L6.28257 6.92346C6.17622 7.0226 6.0951 7.14517 6.04463 7.28127C5.99957 7.41526 5.98154 7.55255 5.99055 7.69315C6.13566 8.0816 6.36368 8.4349 6.6575 8.72782C7.11625 9.3497 7.5741 9.89046 8.04096 10.4763C8.88541 11.4566 9.88758 12.2891 11.0062 12.9395C11.1206 13.0233 11.2522 13.0792 11.3919 13.1035C11.5127 13.1125 11.6352 13.0945 11.7488 13.0494C12.0688 12.8611 12.3527 12.6195 12.5906 12.3347C12.9106 11.9429 13.3699 11.6903 13.8722 11.6299C14.3556 11.6366 14.8166 11.8342 15.1547 12.1797C15.3377 12.3347 15.5387 12.5456 15.7315 12.7475L16.0055 13.0305L16.2894 13.3054L16.7752 13.7993C17.0648 14.0565 17.3364 14.3314 17.59 14.624C17.8441 14.9755 17.9586 15.4108 17.9099 15.8416ZM14.6239 9.56961C14.4423 9.56773 14.2687 9.49477 14.1403 9.36638C14.0119 9.23799 13.939 9.0644 13.9371 8.88284C13.9381 8.3644 13.8366 7.85088 13.6387 7.37172C13.4407 6.89257 13.1501 6.45721 12.7835 6.09062C12.4169 5.72403 11.9816 5.43343 11.5024 5.23547C11.0233 5.03751 10.5098 4.9361 9.99132 4.93705C9.80918 4.93705 9.63449 4.86469 9.5057 4.7359C9.3769 4.6071 9.30455 4.43242 9.30455 4.25028C9.30455 4.06813 9.3769 3.89345 9.5057 3.76465C9.63449 3.63586 9.80918 3.5635 9.99132 3.5635C10.6902 3.56244 11.3823 3.69929 12.0282 3.96624C12.6741 4.23318 13.2609 4.62496 13.755 5.11912C14.2492 5.61328 14.641 6.2001 14.9079 6.84595C15.1749 7.49181 15.3117 8.18399 15.3107 8.88284C15.3109 8.97309 15.2933 9.0625 15.2589 9.14593C15.2244 9.22936 15.1739 9.30517 15.11 9.36899C15.0462 9.43281 14.9704 9.48339 14.887 9.51781C14.8035 9.55224 14.7141 9.56985 14.6239 9.56961Z" fill="white"/>
<path d="M17.801 9.24876C17.6195 9.24689 17.4461 9.17405 17.3177 9.04585C17.1894 8.91766 17.1163 8.74429 17.1142 8.56289C17.1156 7.67955 16.9428 6.8046 16.6057 5.9881C16.2687 5.1716 15.7739 4.42959 15.1497 3.80451C14.5256 3.17944 13.7843 2.68357 12.9683 2.34528C12.1523 2.007 11.2776 1.83294 10.3943 1.83306C10.302 1.8364 10.2101 1.82112 10.1239 1.78813C10.0377 1.75515 9.95907 1.70513 9.89264 1.64107C9.82622 1.57701 9.77339 1.50022 9.7373 1.41529C9.70122 1.33035 9.68262 1.23902 9.68262 1.14673C9.68262 1.05445 9.70122 0.963116 9.7373 0.878181C9.77339 0.793247 9.82622 0.716456 9.89264 0.652396C9.95907 0.588335 10.0377 0.538318 10.1239 0.505333C10.2101 0.472347 10.302 0.457069 10.3943 0.460412C11.4579 0.460411 12.511 0.670053 13.4936 1.07735C14.4761 1.48465 15.3687 2.08161 16.1204 2.83412C16.8721 3.58662 17.468 4.4799 17.8742 5.46288C18.2804 6.44587 18.4889 7.49928 18.4877 8.56289C18.488 8.65314 18.4704 8.74255 18.4359 8.82598C18.4015 8.90941 18.3509 8.98522 18.2871 9.04904C18.2233 9.11286 18.1475 9.16344 18.0641 9.19787C17.9806 9.2323 17.8912 9.249 17.801 9.24876Z" fill="white"/>
</g>
<defs>
<clipPath id="clip0_1381_841">
<rect width="18.0991" height="18.0991" fill="white" transform="translate(0.451172 0.451172)"/>
</clipPath>
</defs>
</svg>
