<svg aria-hidden="true" style="position: absolute; width: 0; height: 0; overflow: hidden;" version="1.1" xmlns="http://www.w3.org/2000/svg" xmlns:xlink="http://www.w3.org/1999/xlink">
<defs>
<symbol id="icon-modal-arrow" viewBox="0 0 51 32">
<path fill="#2a3d5e" style="fill: var(--color1, #2a3d5e)" d="M51.2 6.4l-25.6 25.6-25.6-25.6 6.4-6.4 19.2 19.2 19.2-19.2 6.4 6.4z"></path>
</symbol>
<symbol id="icon-modal-check" viewBox="0 0 40 32">
<path fill="#f4f4fd" style="fill: var(--color2, #f4f4fd)" d="M33.782 1.020c0.691-0.662 1.611-1.027 2.565-1.020s1.869 0.387 2.55 1.059c0.681 0.672 1.076 1.584 1.101 2.543s-0.321 1.891-0.966 2.598l-19.578 24.617c-0.337 0.365-0.743 0.657-1.195 0.86s-0.939 0.312-1.434 0.322c-0.495 0.009-0.986-0.082-1.445-0.268s-0.876-0.463-1.226-0.815l-12.984-13.054c-0.362-0.339-0.652-0.747-0.853-1.201s-0.309-0.944-0.318-1.441 0.082-0.99 0.267-1.451c0.185-0.461 0.461-0.879 0.81-1.231s0.766-0.628 1.224-0.814 0.949-0.277 1.443-0.269c0.494 0.009 0.981 0.118 1.433 0.32s0.858 0.494 1.195 0.857l10.275 10.325 17.042-21.83c0.031-0.038 0.063-0.074 0.098-0.109h-0.005z"></path>
</symbol>
<symbol id="icon-modal-date" viewBox="0 0 32 32">
<path fill="#2a3d5e" style="fill: var(--color1, #2a3d5e)" d="M9.626 1.75c0-0.298-0.119-0.585-0.329-0.795s-0.497-0.33-0.796-0.33c-0.298 0-0.585 0.119-0.795 0.33s-0.33 0.497-0.33 0.795v2.37c-2.16 0.173-3.576 0.596-4.617 1.638-1.042 1.041-1.466 2.458-1.639 4.617h29.763c-0.174-2.16-0.597-3.576-1.64-4.617-1.041-1.042-2.458-1.465-4.617-1.639v-2.369c0-0.298-0.118-0.585-0.329-0.795s-0.497-0.33-0.796-0.33c-0.298 0-0.584 0.119-0.795 0.33s-0.33 0.497-0.33 0.795v2.269c-0.997-0.019-2.116-0.019-3.375-0.019h-6c-1.258 0-2.377 0-3.375 0.019v-2.269z"></path>
<path fill="#2a3d5e" style="fill: var(--color1, #2a3d5e)" d="M1 16c0-1.258 0-2.377 0.020-3.375h29.961c0.020 0.998 0.020 2.117 0.020 3.375v3c0 5.657 0 8.486-1.758 10.242s-4.586 1.758-10.242 1.758h-6c-5.657 0-8.486 0-10.242-1.758s-1.758-4.585-1.758-10.242v-3zM23.5 19c0.398 0 0.779-0.158 1.061-0.439s0.439-0.663 0.439-1.061-0.158-0.779-0.439-1.061c-0.281-0.281-0.663-0.439-1.061-0.439s-0.779 0.158-1.061 0.439c-0.281 0.281-0.439 0.663-0.439 1.061s0.158 0.779 0.439 1.061c0.281 0.281 0.663 0.439 1.061 0.439zM23.5 25c0.398 0 0.779-0.158 1.061-0.439s0.439-0.663 0.439-1.061-0.158-0.779-0.439-1.061c-0.281-0.281-0.663-0.439-1.061-0.439s-0.779 0.158-1.061 0.439c-0.281 0.281-0.439 0.663-0.439 1.061s0.158 0.779 0.439 1.061c0.281 0.281 0.663 0.439 1.061 0.439zM17.5 17.5c0-0.398-0.158-0.779-0.439-1.061s-0.663-0.439-1.061-0.439c-0.398 0-0.779 0.158-1.061 0.439s-0.439 0.663-0.439 1.061c0 0.398 0.158 0.779 0.439 1.061s0.663 0.439 1.061 0.439c0.398 0 0.779-0.158 1.061-0.439s0.439-0.663 0.439-1.061zM17.5 23.5c0-0.398-0.158-0.779-0.439-1.061s-0.663-0.439-1.061-0.439-0.779 0.158-1.061 0.439c-0.281 0.281-0.439 0.663-0.439 1.061s0.158 0.779 0.439 1.061c0.281 0.281 0.663 0.439 1.061 0.439s0.779-0.158 1.061-0.439c0.281-0.281 0.439-0.663 0.439-1.061zM8.5 19c0.398 0 0.779-0.158 1.061-0.439s0.439-0.663 0.439-1.061c0-0.398-0.158-0.779-0.439-1.061s-0.663-0.439-1.061-0.439c-0.398 0-0.779 0.158-1.061 0.439s-0.439 0.663-0.439 1.061c0 0.398 0.158 0.779 0.439 1.061s0.663 0.439 1.061 0.439zM8.5 25c0.398 0 0.779-0.158 1.061-0.439s0.439-0.663 0.439-1.061-0.158-0.779-0.439-1.061c-0.281-0.281-0.663-0.439-1.061-0.439s-0.779 0.158-1.061 0.439c-0.281 0.281-0.439 0.663-0.439 1.061s0.158 0.779 0.439 1.061c0.281 0.281 0.663 0.439 1.061 0.439z"></path>
</symbol>
<symbol id="icon-modal-mail" viewBox="0 0 24 32">
<path fill="#2a3d5e" style="fill: var(--color1, #2a3d5e)" d="M20 8h-16c-1.1 0-1.99 0.9-1.99 2l-0.010 12c0 1.1 0.9 2 2 2h16c1.1 0 2-0.9 2-2v-12c0-1.1-0.9-2-2-2zM19.6 12.25l-7.070 4.42c-0.32 0.2-0.74 0.2-1.060 0l-7.070-4.42c-0.25-0.16-0.4-0.43-0.4-0.72 0-0.67 0.73-1.070 1.3-0.72l6.7 4.19 6.7-4.19c0.57-0.35 1.3 0.050 1.3 0.72 0 0.29-0.15 0.56-0.4 0.72z"></path>
</symbol>
<symbol id="icon-modal-name" viewBox="0 0 27 32">
<path fill="#2a3d5e" style="fill: var(--color1, #2a3d5e)" d="M12 16c2.21 0 4-1.79 4-4s-1.79-4-4-4c-2.21 0-4 1.79-4 4s1.79 4 4 4zM12 18c-2.67 0-8 1.34-8 4v1c0 0.55 0.45 1 1 1h14c0.55 0 1-0.45 1-1v-1c0-2.66-5.33-4-8-4z"></path>
<path fill="none" stroke="#2e2f42" style="stroke: var(--color3, #2e2f42)" stroke-linejoin="miter" stroke-linecap="round" stroke-miterlimit="4" stroke-width="1.6667" d="M24.833 4.833v22.333"></path>
</symbol>
<symbol id="icon-modal-phone" viewBox="0 0 24 32">
<path fill="#2a3d5e" style="fill: var(--color1, #2a3d5e)" d="M19.635 18.487l-2.451-0.28c-0.589-0.067-1.167 0.135-1.582 0.55l-1.775 1.775c-2.731-1.389-4.969-3.618-6.359-6.359l1.785-1.785c0.415-0.415 0.618-0.994 0.55-1.582l-0.28-2.432c-0.116-0.975-0.936-1.708-1.92-1.708h-1.669c-1.090 0-1.997 0.907-1.93 1.997 0.511 8.24 7.102 14.821 15.332 15.332 1.090 0.068 1.997-0.839 1.997-1.93v-1.669c0.010-0.975-0.724-1.795-1.698-1.911z"></path>
</symbol>
<symbol id="icon-logo-footer" viewBox="0 0 97 32">
<path fill="#d04e47" style="fill: var(--color4, #d04e47)" d="M46.193 29.101c0-0.276 0.048-0.543 0.146-0.809 0.096-0.264 0.238-0.506 0.424-0.723 0.186-0.219 0.413-0.392 0.68-0.52 0.269-0.128 0.572-0.193 0.916-0.193 0.403 0 0.753 0.091 1.049 0.274 0.294 0.181 0.515 0.419 0.659 0.711l-0.655 0.463c-0.075-0.169-0.171-0.303-0.29-0.404-0.119-0.099-0.248-0.169-0.384-0.209s-0.271-0.061-0.401-0.061c-0.215 0-0.401 0.045-0.561 0.134s-0.292 0.205-0.399 0.349c-0.108 0.144-0.186 0.305-0.238 0.482s-0.077 0.354-0.077 0.534c0 0.199 0.031 0.39 0.092 0.573s0.15 0.346 0.263 0.488c0.113 0.142 0.25 0.254 0.409 0.337s0.332 0.124 0.522 0.124c0.136 0 0.275-0.024 0.415-0.069 0.14-0.047 0.271-0.12 0.39-0.222s0.213-0.232 0.278-0.394l0.699 0.412c-0.086 0.224-0.228 0.413-0.424 0.571-0.196 0.156-0.415 0.276-0.659 0.354-0.244 0.081-0.484 0.12-0.724 0.12-0.313 0-0.599-0.067-0.86-0.199-0.259-0.134-0.484-0.311-0.67-0.533-0.188-0.223-0.334-0.471-0.44-0.748s-0.159-0.559-0.159-0.841z"></path>
<path fill="#d04e47" style="fill: var(--color4, #d04e47)" d="M52.52 31.42c-0.323 0-0.613-0.063-0.876-0.191-0.261-0.126-0.486-0.299-0.674-0.516-0.188-0.219-0.332-0.463-0.436-0.736-0.104-0.272-0.156-0.553-0.156-0.841 0-0.299 0.054-0.587 0.163-0.858 0.109-0.274 0.259-0.516 0.451-0.728s0.419-0.382 0.68-0.508c0.261-0.124 0.549-0.187 0.862-0.187 0.317 0 0.607 0.065 0.87 0.197 0.261 0.132 0.486 0.307 0.67 0.526 0.186 0.221 0.33 0.465 0.432 0.736 0.104 0.27 0.156 0.549 0.156 0.837 0 0.295-0.054 0.581-0.161 0.852-0.108 0.274-0.257 0.516-0.449 0.728s-0.419 0.382-0.68 0.504c-0.257 0.124-0.543 0.185-0.853 0.185zM51.247 29.138c0 0.195 0.029 0.382 0.086 0.565 0.058 0.181 0.142 0.345 0.25 0.484 0.109 0.142 0.244 0.254 0.401 0.337 0.159 0.083 0.34 0.124 0.541 0.124 0.206 0 0.39-0.043 0.551-0.13s0.294-0.203 0.401-0.348c0.108-0.146 0.188-0.309 0.244-0.488s0.084-0.36 0.084-0.541c0-0.195-0.031-0.382-0.090-0.561s-0.144-0.341-0.254-0.482c-0.109-0.142-0.244-0.254-0.401-0.337-0.159-0.083-0.338-0.124-0.536-0.124-0.211 0-0.396 0.043-0.553 0.13-0.159 0.087-0.292 0.203-0.399 0.347s-0.188 0.305-0.244 0.482c-0.056 0.175-0.083 0.356-0.083 0.543z"></path>
<path fill="#d04e47" style="fill: var(--color4, #d04e47)" d="M58.906 31.387v-2.955l-1.125 2.201h-0.476l-1.125-2.201v2.955h-0.855v-4.503h0.916l1.298 2.561 1.312-2.561h0.908v4.503h-0.853z"></path>
<path fill="#d04e47" style="fill: var(--color4, #d04e47)" d="M60.674 31.387v-4.503h1.863c0.202 0 0.388 0.041 0.557 0.126s0.317 0.199 0.442 0.343c0.125 0.144 0.223 0.305 0.294 0.482 0.069 0.177 0.106 0.36 0.106 0.545 0 0.254-0.058 0.494-0.173 0.723s-0.275 0.413-0.476 0.557c-0.202 0.144-0.442 0.215-0.718 0.215h-1.039v1.51h-0.855v0.002zM61.527 29.111h0.989c0.104 0 0.196-0.030 0.278-0.089s0.148-0.146 0.198-0.256c0.050-0.112 0.075-0.24 0.075-0.384 0-0.156-0.029-0.289-0.084-0.4s-0.129-0.193-0.217-0.248c-0.088-0.055-0.184-0.083-0.288-0.083h-0.953v1.459h0.002z"></path>
<path fill="#d04e47" style="fill: var(--color4, #d04e47)" d="M65.406 26.885h0.866l1.615 4.503h-0.878l-0.365-1.122h-1.613l-0.367 1.122h-0.878l1.619-4.503zM66.443 29.651l-0.605-1.858-0.607 1.858h1.212z"></path>
<path fill="#d04e47" style="fill: var(--color4, #d04e47)" d="M69.221 28.495v2.892h-0.855v-4.503h0.68l2.27 2.967v-2.961h0.854v4.497h-0.71l-2.239-2.892z"></path>
<path fill="#d04e47" style="fill: var(--color4, #d04e47)" d="M73.582 26.885l1.083 2.118 1.101-2.118h0.922l-1.596 2.93v1.573h-0.847v-1.585l-1.59-2.918h0.927z"></path>
<path fill="#d04e47" style="fill: var(--color4, #d04e47)" d="M23.54 31.389v-2.955l-1.125 2.201h-0.476l-1.125-2.201v2.955h-0.855v-4.502h0.916l1.298 2.561 1.312-2.561h0.908v4.502h-0.853z"></path>
<path fill="#d04e47" style="fill: var(--color4, #d04e47)" d="M27.183 31.421c-0.323 0-0.613-0.063-0.876-0.191-0.261-0.126-0.486-0.299-0.674-0.516-0.188-0.219-0.332-0.463-0.436-0.736-0.104-0.272-0.156-0.553-0.156-0.841 0-0.299 0.054-0.587 0.163-0.858s0.259-0.516 0.451-0.728c0.192-0.213 0.419-0.382 0.68-0.508 0.261-0.124 0.549-0.187 0.862-0.187 0.317 0 0.607 0.065 0.87 0.197 0.261 0.132 0.486 0.307 0.67 0.526 0.186 0.221 0.33 0.465 0.432 0.736 0.104 0.27 0.156 0.549 0.156 0.837 0 0.295-0.054 0.581-0.161 0.852-0.108 0.274-0.257 0.516-0.449 0.728s-0.419 0.382-0.68 0.504c-0.257 0.124-0.543 0.185-0.853 0.185zM25.91 29.139c0 0.195 0.029 0.382 0.086 0.565 0.058 0.181 0.142 0.345 0.25 0.484 0.109 0.142 0.244 0.254 0.401 0.337 0.159 0.083 0.34 0.124 0.541 0.124 0.206 0 0.39-0.043 0.551-0.13s0.294-0.203 0.401-0.349c0.108-0.146 0.188-0.309 0.244-0.488s0.084-0.36 0.084-0.541c0-0.195-0.031-0.382-0.090-0.561s-0.144-0.341-0.253-0.482c-0.11-0.142-0.244-0.254-0.401-0.337-0.159-0.083-0.338-0.124-0.536-0.124-0.211 0-0.396 0.043-0.553 0.13-0.159 0.087-0.292 0.203-0.399 0.346s-0.188 0.305-0.244 0.482c-0.056 0.175-0.083 0.356-0.083 0.543z"></path>
<path fill="#d04e47" style="fill: var(--color4, #d04e47)" d="M34.001 31.389v-4.502h0.855v4.502h-0.855z"></path>
<path fill="#d04e47" style="fill: var(--color4, #d04e47)" d="M36.621 28.497v2.892h-0.855v-4.502h0.68l2.27 2.967v-2.961h0.855v4.497h-0.711l-2.239-2.892z"></path>
<path fill="#d04e47" style="fill: var(--color4, #d04e47)" d="M42.315 31.422c-0.284 0-0.553-0.059-0.807-0.177s-0.476-0.282-0.668-0.492c-0.192-0.209-0.342-0.453-0.449-0.732s-0.161-0.581-0.161-0.908c0-0.309 0.054-0.599 0.161-0.872s0.257-0.512 0.451-0.721c0.194-0.207 0.421-0.37 0.68-0.488s0.541-0.177 0.847-0.177c0.413 0 0.766 0.091 1.060 0.27 0.296 0.179 0.517 0.417 0.664 0.713l-0.638 0.482c-0.111-0.224-0.267-0.396-0.467-0.514s-0.417-0.177-0.653-0.177c-0.186 0-0.355 0.039-0.507 0.12s-0.284 0.191-0.396 0.329c-0.111 0.138-0.198 0.301-0.257 0.482s-0.090 0.374-0.090 0.577c0 0.217 0.033 0.413 0.096 0.596 0.063 0.181 0.154 0.341 0.273 0.476 0.117 0.136 0.255 0.242 0.411 0.321 0.157 0.079 0.33 0.118 0.52 0.118 0.223 0 0.436-0.059 0.639-0.177s0.396-0.291 0.572-0.52v0.862c-0.363 0.406-0.793 0.608-1.283 0.608zM43.54 29.717h-0.885v-0.64h1.59v2.315h-0.705v-1.675z"></path>
<path fill="#d04e47" style="fill: var(--color4, #d04e47)" d="M34.077 25.372l-0.595-1.020-0.905 0.917 0.315 0.020-1.434 5.062-1.189-3.463h-0.897l1.671 4.502h0.822l1.901-6.044 0.311 0.026z"></path>
<path fill="#fff" style="fill: var(--color5, #fff)" d="M93.244 18.268h-6.844v-2.733h6.084v0.75l3.398-2.705-3.398-2.703v0.803h-6.084v-2.441h6.844v0.665l3.401-2.703-3.401-2.703v0.593h-11.485v17.325h11.485v0.683l3.401-2.703-3.401-2.705v0.577z"></path>
<path fill="#fff" style="fill: var(--color5, #fff)" d="M38.14 22.381v-17.201h7.704c0.818 0 1.575 0.169 2.268 0.508s1.292 0.795 1.795 1.368 0.893 1.215 1.169 1.925c0.275 0.711 0.413 1.429 0.413 2.156 0 0.662-0.094 1.299-0.284 1.914-0.188 0.614-0.465 1.175-0.828 1.683s-0.795 0.949-1.3 1.321l3.545 6.324h-5.056l-2.953-5.282h-1.867v5.282l-4.607 0.002zM42.746 12.981h2.907c0.188 0 0.371-0.073 0.543-0.219s0.319-0.354 0.438-0.63c0.119-0.274 0.177-0.606 0.177-0.994 0-0.404-0.067-0.738-0.202-1.006-0.134-0.266-0.3-0.472-0.495-0.618-0.198-0.146-0.39-0.219-0.578-0.219h-2.788v3.685h-0.002z"></path>
<path fill="#fff" style="fill: var(--color5, #fff)" d="M54.090 22.381v-17.201h4.609v17.201h-4.609z"></path>
<path fill="#fff" style="fill: var(--color5, #fff)" d="M74.271 22.381v-9.060l-2.811 6.371h-2.458l-2.811-6.371v9.060h-4.609v-17.201h5.033l3.616 8.091 3.639-8.091h5.010v17.201h-4.609z"></path>
<path fill="#fff" style="fill: var(--color5, #fff)" d="M5.774 22.587c0.914 0 1.961-0.77 2.339-1.721s-0.054-1.721-0.968-1.721h-1.625c-0.914 0-1.961 0.77-2.339 1.721-0.19 0.474-0.177 0.906 0 1.217 0.175 0.311 0.513 0.504 0.968 0.504h1.625z"></path>
<path fill="#fff" style="fill: var(--color5, #fff)" d="M2.477 5.181c-0.914 0-1.961 0.77-2.339 1.721-0.19 0.474-0.177 0.906 0 1.217 0.175 0.311 0.513 0.504 0.968 0.504h1.625c0.914 0 1.961-0.77 2.339-1.721s-0.054-1.721-0.968-1.721h-1.625z"></path>
<path fill="#fff" style="fill: var(--color5, #fff)" d="M8.217 15.5c0.457 0 0.947-0.193 1.371-0.504 0.422-0.311 0.78-0.742 0.97-1.217 0.378-0.951-0.054-1.721-0.968-1.721h-6.285c-0.914 0-1.961 0.77-2.339 1.721s0.054 1.721 0.968 1.721h6.283z"></path>
<path fill="#fff" style="fill: var(--color5, #fff)" d="M35.882 8.984c-0.277-0.711-0.666-1.353-1.169-1.925-0.505-0.573-1.102-1.030-1.795-1.368s-1.45-0.508-2.268-0.508h-22.706c-0.457 0-0.947 0.193-1.371 0.504-0.422 0.311-0.78 0.742-0.97 1.217-0.378 0.951 0.054 1.721 0.968 1.721h14.919c0.607 0 1.001 0.341 1.085 0.848 0.044 0.256 0.010 0.553-0.117 0.872-0.036 0.089-0.079 0.175-0.125 0.262-0.202 0.37-0.499 0.701-0.843 0.955-0.363 0.268-0.776 0.445-1.173 0.492-0.065 0.008-0.133 0.012-0.198 0.012h-6.283c-0.067 0-0.136 0.006-0.205 0.014-0.384 0.045-0.782 0.217-1.135 0.469-0.010 0.008-0.021 0.014-0.031 0.022-0.422 0.311-0.78 0.742-0.97 1.217-0.060 0.148-0.096 0.289-0.117 0.425-0.033 0.219-0.021 0.419 0.035 0.597 0.133 0.423 0.505 0.697 1.049 0.697h10.952v3.439c-0.424 0.006-0.286 0-0.424 0h-11.902c-0.265 0-0.541 0.067-0.81 0.183-0.655 0.282-1.26 0.864-1.529 1.538-0.378 0.951 0.054 1.721 0.968 1.721h18.303v-5.282h2.74c1.102 0 2.068-0.287 2.894-0.86 0.828-0.573 1.473-1.311 1.938-2.217 0.465-0.904 0.697-1.864 0.697-2.882 0.010-0.73-0.129-1.449-0.403-2.16zM31.438 12.231c-0.119 0.276-0.263 0.469-0.438 0.581-0.173 0.112-0.355 0.169-0.543 0.169h-2.433v-3.682h2.316c0.188 0 0.382 0.053 0.578 0.158s0.363 0.291 0.495 0.557c0.134 0.266 0.202 0.642 0.202 1.126 0.002 0.453-0.058 0.815-0.177 1.091z"></path>
<path fill="#d04e47" style="fill: var(--color4, #d04e47)" d="M73.242 2.473c-0.095-0.439-0.275-0.837-0.536-1.197-0.286-0.396-0.645-0.709-1.073-0.933-0.553-0.291-1.141-0.39-1.757-0.323-0.010 0.002-0.021 0.004-0.031 0.008-0.169 0.014-0.334 0.053-0.497 0.102-0.328 0.1-0.632 0.254-0.91 0.461-0.447 0.331-0.785 0.754-1.014 1.268-0.206 0.461-0.296 0.945-0.267 1.449 0.010 0.193 0.040 0.384 0.090 0.569 0.002 0.018 0.004 0.035 0.010 0.051 0.079 0.305 0.179 0.604 0.303 0.892 0.15 0.346 0.305 0.691 0.472 1.030 0.344 0.695 0.726 1.37 1.131 2.030 0.303 0.496 0.62 0.984 0.931 1.475 0.036 0.059 0.079 0.114 0.119 0.169 0.013 0 0.025 0 0.038 0 0.006-0.010 0.012-0.018 0.019-0.028 0.006-0.006 0.013-0.010 0.017-0.016 0.071-0.106 0.142-0.209 0.209-0.317 0.298-0.473 0.599-0.943 0.889-1.42 0.183-0.297 0.351-0.602 0.523-0.906 0.315-0.559 0.61-1.128 0.872-1.717 0.14-0.317 0.265-0.638 0.366-0.971 0.035-0.112 0.058-0.226 0.085-0.341 0.002-0.006 0.006-0.012 0.008-0.018 0.098-0.439 0.098-0.878 0.002-1.319zM69.956 7.153c-0.056-0.047-0.111-0.093-0.167-0.142 0.056 0.049 0.111 0.096 0.167 0.142zM71.691 3.284c-0.056 0.406-0.248 0.736-0.565 0.986-0.292 0.23-0.622 0.333-0.991 0.311-0.012 0-0.023 0-0.035 0-0.021-0.002-0.042-0.006-0.063-0.008-0.006 0-0.010-0.002-0.015-0.002-0.102-0.028-0.206-0.049-0.303-0.087-0.248-0.093-0.455-0.244-0.62-0.453-0.232-0.291-0.35-0.628-0.336-1.004 0.017-0.478 0.213-0.868 0.582-1.164 0.211-0.169 0.451-0.268 0.716-0.301 0.006 0 0.013-0.004 0.019-0.006 0.109 0.002 0.219-0.006 0.326 0.006 0.301 0.032 0.568 0.154 0.793 0.36 0.394 0.364 0.565 0.819 0.492 1.36z"></path>
</symbol>
<symbol id="icon-back-arrow" viewBox="0 0 20 32">
<path fill="#2a3d5e" style="fill: var(--color1, #2a3d5e)" d="M16.291 32l-16.291-16 16.291-16 4.073 4-12.218 12 12.218 12-4.073 4z"></path>
</symbol>
<symbol id="icon-check" viewBox="0 0 41 32">
<path fill="#d04e47" style="fill: var(--color4, #d04e47)" d="M14.287 24.738l-7.27-7.27c-0.392-0.392-0.923-0.612-1.477-0.612s-1.085 0.22-1.477 0.612-0.612 0.923-0.612 1.477c0 0.274 0.054 0.546 0.159 0.799s0.259 0.484 0.453 0.678l8.758 8.758c0.817 0.817 2.137 0.817 2.954 0l22.168-22.168c0.392-0.392 0.612-0.923 0.612-1.477s-0.22-1.085-0.612-1.477c-0.392-0.392-0.923-0.612-1.477-0.612s-1.085 0.22-1.477 0.612l-20.701 20.68z"></path>
</symbol>
<symbol id="icon-forward-arrow" viewBox="0 0 20 32">
<path fill="#2a3d5e" style="fill: var(--color1, #2a3d5e)" d="M4.073 32l16.291-16-16.291-16-4.073 4 12.218 12-12.218 12 4.073 4z"></path>
</symbol>
<symbol id="icon-instagram" viewBox="0 0 32 32">
<path fill="#fff" style="fill: var(--color5, #fff)" d="M16.001 0c-4.345 0-4.891 0.019-6.597 0.097-1.703 0.078-2.866 0.348-3.883 0.743-1.052 0.409-1.945 0.955-2.834 1.845s-1.437 1.782-1.847 2.834c-0.397 1.018-0.667 2.181-0.743 3.883-0.076 1.707-0.096 2.252-0.096 6.598s0.019 4.889 0.097 6.596c0.078 1.703 0.348 2.866 0.743 3.883 0.409 1.052 0.956 1.945 1.845 2.834s1.782 1.438 2.833 1.847c1.018 0.396 2.181 0.665 3.884 0.743 1.707 0.078 2.252 0.097 6.597 0.097s4.889-0.019 6.596-0.097c1.703-0.078 2.867-0.348 3.885-0.743 1.052-0.409 1.943-0.957 2.832-1.847 0.89-0.889 1.437-1.782 1.847-2.834 0.393-1.018 0.663-2.181 0.743-3.883 0.077-1.707 0.097-2.251 0.097-6.596s-0.020-4.891-0.097-6.597c-0.080-1.703-0.35-2.866-0.743-3.883-0.41-1.052-0.957-1.945-1.847-2.835s-1.78-1.437-2.833-1.845c-1.020-0.396-2.183-0.666-3.887-0.744-1.707-0.078-2.25-0.097-6.597-0.097h0.005zM14.566 2.883c0.426-0.001 0.901 0 1.435 0 4.272 0 4.778 0.015 6.465 0.092 1.56 0.071 2.407 0.332 2.971 0.551 0.747 0.29 1.279 0.637 1.839 1.197s0.907 1.093 1.197 1.84c0.219 0.563 0.48 1.41 0.551 2.97 0.077 1.687 0.093 2.193 0.093 6.463s-0.017 4.777-0.093 6.463c-0.071 1.56-0.332 2.407-0.551 2.97-0.29 0.747-0.637 1.278-1.197 1.838s-1.092 0.907-1.839 1.197c-0.563 0.22-1.411 0.48-2.971 0.551-1.687 0.077-2.193 0.093-6.465 0.093s-4.779-0.017-6.465-0.093c-1.56-0.072-2.407-0.333-2.971-0.552-0.747-0.29-1.28-0.637-1.84-1.197s-0.907-1.092-1.197-1.839c-0.219-0.563-0.48-1.41-0.551-2.97-0.077-1.687-0.092-2.193-0.092-6.466s0.015-4.777 0.092-6.463c0.071-1.56 0.332-2.407 0.551-2.971 0.29-0.747 0.637-1.28 1.197-1.84s1.093-0.907 1.84-1.197c0.564-0.22 1.411-0.48 2.971-0.552 1.476-0.067 2.048-0.087 5.030-0.090v0.004zM24.542 5.54c-1.060 0-1.92 0.859-1.92 1.919s0.86 1.92 1.92 1.92 1.92-0.86 1.92-1.92c0-1.060-0.86-1.92-1.92-1.92v0.001zM16.001 7.783c-4.538 0-8.217 3.679-8.217 8.217s3.679 8.215 8.217 8.215c4.538 0 8.216-3.677 8.216-8.215s-3.678-8.217-8.216-8.217h0zM16.001 10.667c2.945 0 5.333 2.388 5.333 5.333s-2.388 5.333-5.333 5.333-5.333-2.388-5.333-5.333c0-2.946 2.388-5.333 5.333-5.333z"></path>
</symbol>
<symbol id="icon-location" viewBox="0 0 24 32">
<path fill="#d04e47" style="fill: var(--color4, #d04e47)" d="M11.999 15.223c-1.061 0-2.078-0.41-2.828-1.139s-1.172-1.718-1.172-2.75c0-1.031 0.421-2.021 1.172-2.75s1.768-1.139 2.828-1.139c1.061 0 2.078 0.41 2.828 1.139s1.172 1.718 1.172 2.75c0 0.511-0.103 1.016-0.304 1.488s-0.496 0.9-0.867 1.262c-0.371 0.361-0.812 0.648-1.298 0.843s-1.005 0.296-1.531 0.296zM11.999 0.445c-2.97 0-5.819 1.147-7.92 3.189s-3.28 4.812-3.28 7.7c0 8.167 11.2 20.222 11.2 20.222s11.2-12.056 11.2-20.222c0-2.888-1.18-5.658-3.28-7.7s-4.949-3.189-7.92-3.189z"></path>
</symbol>
<symbol id="icon-mail" viewBox="0 0 40 32">
<path fill="#fff" style="fill: var(--color5, #fff)" d="M14.175 18.637l-12.112 11.95c0.381 0.152 0.797 0.237 1.231 0.237h32.94c0.356-0.001 0.693-0.054 1.012-0.158l-12.086-11.924-5.392 3.72-5.593-3.824zM39.529 8.837v18.692c0 0.488-0.107 0.951-0.296 1.368l-11.847-11.689 12.143-8.37zM0 8.942v18.587c0.001 0.395 0.072 0.787 0.209 1.158l11.732-11.578-11.942-8.167zM36.235 1.176c1.818 0 3.295 1.474 3.295 3.295v1.158l-19.769 13.628-19.761-13.515v-1.271c0-1.818 1.474-3.295 3.295-3.295h32.94z"></path>
</symbol>
<symbol id="icon-peaople" viewBox="0 0 38 32">
<path fill="#2a3d5e" style="fill: var(--color1, #2a3d5e)" d="M16.545 30.182c0 0-2.364 0-2.364-2.364s2.364-9.455 11.818-9.455c9.455 0 11.818 7.091 11.818 9.455s-2.364 2.364-2.364 2.364h-18.909zM26 16c1.881 0 3.684-0.747 5.014-2.077s2.077-3.133 2.077-5.014c0-1.881-0.747-3.684-2.077-5.014s-3.133-2.077-5.014-2.077c-1.881 0-3.684 0.747-5.014 2.077s-2.077 3.133-2.077 5.014c0 1.881 0.747 3.684 2.077 5.014s3.133 2.077 5.014 2.077zM12.329 30.182c-0.35-0.738-0.525-1.547-0.511-2.364 0-3.203 1.607-6.5 4.576-8.793-1.482-0.457-3.026-0.681-4.576-0.662-9.455 0-11.818 7.091-11.818 9.455s2.364 2.364 2.364 2.364h9.965zM10.636 16c1.567 0 3.070-0.623 4.178-1.731s1.731-2.611 1.731-4.178c0-1.567-0.623-3.070-1.731-4.178s-2.611-1.731-4.178-1.731c-1.567 0-3.070 0.623-4.178 1.731s-1.731 2.611-1.731 4.178c0 1.567 0.623 3.070 1.731 4.178s2.611 1.731 4.178 1.731z"></path>
</symbol>
<symbol id="icon-phone" viewBox="0 0 32 32">
<path fill="#fff" style="fill: var(--color5, #fff)" d="M30.164 26.681c-0.191 0.855-0.663 1.62-1.342 2.174-0.741 0.752-1.625 1.349-2.599 1.756s-2.019 0.618-3.075 0.618h-0.493c-2.216-0.12-4.386-0.681-6.383-1.65h-0.015c-0.463-0.216-0.941-0.431-1.404-0.694-2.331-1.307-4.469-2.931-6.353-4.827-2.445-2.296-4.451-5.018-5.92-8.033-0.781-1.652-1.302-3.415-1.545-5.226-0.358-1.896-0.142-3.855 0.618-5.629 0.48-0.8 1.066-1.531 1.743-2.174 0.304-0.344 0.676-0.622 1.093-0.816s0.869-0.3 1.328-0.311c0.5 0.055 0.983 0.209 1.423 0.453s0.826 0.572 1.138 0.967c0.694 0.754 1.541 1.541 2.236 2.266l0.956 0.941c0.562 0.498 0.909 1.193 0.972 1.943 0 0.688-0.254 1.351-0.71 1.866-0.296 0.36-0.61 0.704-0.941 1.032l-0.308 0.323c-0.179 0.167-0.316 0.373-0.401 0.603-0.076 0.226-0.106 0.457-0.091 0.694 0.244 0.654 0.628 1.249 1.123 1.743 0.773 1.047 1.544 1.958 2.33 2.945 1.422 1.651 3.11 3.053 4.994 4.149 0.193 0.141 0.414 0.235 0.65 0.276 0.203 0.015 0.41-0.015 0.601-0.091 0.539-0.317 1.017-0.724 1.418-1.204 0.539-0.66 1.313-1.085 2.158-1.187 0.814 0.011 1.591 0.344 2.16 0.926 0.308 0.261 0.647 0.616 0.971 0.956l0.461 0.477 0.478 0.463 0.818 0.832c0.488 0.433 0.945 0.896 1.372 1.389 0.428 0.592 0.621 1.325 0.539 2.051zM24.63 16.117c-0.306-0.003-0.598-0.126-0.814-0.342s-0.339-0.509-0.342-0.814c0.002-0.873-0.169-1.738-0.503-2.545s-0.823-1.54-1.44-2.158-1.351-1.107-2.158-1.44c-0.807-0.333-1.672-0.504-2.545-0.503-0.307 0-0.601-0.122-0.818-0.339s-0.339-0.511-0.339-0.818c0-0.307 0.122-0.601 0.339-0.818s0.511-0.339 0.818-0.339c1.177-0.002 2.343 0.229 3.431 0.678s2.076 1.109 2.908 1.942c0.832 0.832 1.492 1.821 1.942 2.908s0.68 2.254 0.678 3.431c0 0.152-0.029 0.303-0.087 0.443s-0.143 0.268-0.251 0.376c-0.107 0.107-0.235 0.193-0.376 0.251s-0.291 0.088-0.443 0.087z"></path>
<path fill="#fff" style="fill: var(--color5, #fff)" d="M29.981 15.577c-0.306-0.003-0.598-0.126-0.814-0.342s-0.339-0.508-0.343-0.813c0.002-1.488-0.289-2.961-0.856-4.337s-1.401-2.625-2.452-3.678c-1.051-1.053-2.3-1.888-3.674-2.458s-2.848-0.863-4.335-0.863c-0.155 0.006-0.31-0.020-0.455-0.076s-0.278-0.14-0.39-0.248c-0.112-0.108-0.201-0.237-0.262-0.38s-0.092-0.297-0.092-0.452c0-0.155 0.031-0.309 0.092-0.452s0.15-0.272 0.262-0.38c0.112-0.108 0.244-0.192 0.39-0.248s0.3-0.081 0.455-0.076c1.791 0 3.565 0.353 5.22 1.039s3.158 1.691 4.424 2.959 2.27 2.772 2.954 4.427c0.684 1.656 1.035 3.43 1.033 5.221 0 0.152-0.029 0.303-0.087 0.443s-0.143 0.268-0.251 0.376-0.235 0.193-0.376 0.251c-0.141 0.058-0.291 0.086-0.443 0.086z"></path>
</symbol>
<symbol id="icon-logo" viewBox="0 0 96 32">
<path fill="#d04e47" style="fill: var(--color4, #d04e47)" d="M45.885 29.201c0-0.274 0.048-0.54 0.145-0.804 0.095-0.262 0.236-0.503 0.422-0.718 0.185-0.217 0.41-0.389 0.675-0.516 0.267-0.127 0.568-0.192 0.91-0.192 0.401 0 0.748 0.090 1.041 0.272 0.292 0.18 0.511 0.417 0.654 0.706l-0.65 0.46c-0.074-0.168-0.17-0.301-0.288-0.401-0.118-0.098-0.246-0.168-0.381-0.207s-0.269-0.061-0.399-0.061c-0.214 0-0.399 0.045-0.557 0.133s-0.29 0.203-0.397 0.346c-0.107 0.143-0.185 0.303-0.236 0.479s-0.076 0.352-0.076 0.53c0 0.198 0.031 0.387 0.092 0.569s0.149 0.344 0.261 0.485 0.248 0.252 0.406 0.334c0.158 0.082 0.33 0.123 0.519 0.123 0.135 0 0.273-0.023 0.412-0.068 0.139-0.047 0.269-0.119 0.387-0.221s0.212-0.231 0.277-0.391l0.694 0.409c-0.086 0.223-0.227 0.411-0.422 0.567-0.195 0.154-0.412 0.274-0.654 0.352-0.242 0.080-0.481 0.119-0.719 0.119-0.311 0-0.595-0.066-0.855-0.198-0.257-0.133-0.481-0.309-0.666-0.53-0.187-0.221-0.332-0.467-0.437-0.743s-0.158-0.555-0.158-0.835z"></path>
<path fill="#d04e47" style="fill: var(--color4, #d04e47)" d="M52.169 31.504c-0.321 0-0.608-0.063-0.87-0.19-0.26-0.125-0.483-0.297-0.67-0.512-0.187-0.217-0.33-0.46-0.433-0.731-0.103-0.27-0.155-0.55-0.155-0.835 0-0.297 0.053-0.583 0.162-0.853 0.109-0.272 0.258-0.512 0.448-0.724s0.416-0.379 0.675-0.505c0.259-0.123 0.546-0.186 0.856-0.186 0.315 0 0.603 0.065 0.864 0.196 0.259 0.131 0.483 0.305 0.666 0.522 0.185 0.219 0.328 0.462 0.429 0.731 0.103 0.268 0.155 0.546 0.155 0.831 0 0.293-0.053 0.577-0.16 0.847-0.107 0.272-0.256 0.512-0.446 0.724s-0.416 0.379-0.675 0.501c-0.256 0.123-0.54 0.184-0.847 0.184zM50.905 29.238c0 0.194 0.029 0.379 0.086 0.561 0.057 0.18 0.141 0.342 0.248 0.481 0.109 0.141 0.242 0.252 0.399 0.334 0.158 0.082 0.338 0.123 0.538 0.123 0.204 0 0.387-0.043 0.547-0.129s0.292-0.201 0.399-0.346c0.107-0.145 0.187-0.307 0.242-0.485s0.084-0.358 0.084-0.538c0-0.194-0.031-0.379-0.090-0.557s-0.143-0.338-0.252-0.479-0.242-0.252-0.399-0.334c-0.158-0.082-0.336-0.123-0.532-0.123-0.21 0-0.393 0.043-0.549 0.129-0.158 0.086-0.29 0.201-0.397 0.344s-0.187 0.303-0.242 0.479c-0.055 0.174-0.082 0.354-0.082 0.54z"></path>
<path fill="#d04e47" style="fill: var(--color4, #d04e47)" d="M58.512 31.472v-2.935l-1.118 2.186h-0.473l-1.118-2.186v2.935h-0.849v-4.472h0.91l1.289 2.544 1.303-2.544h0.902v4.472h-0.847z"></path>
<path fill="#d04e47" style="fill: var(--color4, #d04e47)" d="M60.269 31.472v-4.472h1.85c0.2 0 0.385 0.041 0.553 0.125s0.315 0.198 0.439 0.34c0.124 0.143 0.221 0.303 0.292 0.479 0.069 0.176 0.105 0.358 0.105 0.542 0 0.252-0.057 0.491-0.172 0.718s-0.273 0.411-0.473 0.553c-0.2 0.143-0.439 0.213-0.713 0.213h-1.032v1.5h-0.849v0.002zM61.116 29.212h0.982c0.103 0 0.195-0.029 0.277-0.088s0.147-0.145 0.196-0.254c0.050-0.111 0.074-0.239 0.074-0.381 0-0.155-0.029-0.288-0.084-0.397s-0.128-0.192-0.216-0.246c-0.088-0.055-0.183-0.082-0.286-0.082h-0.946v1.449h0.002z"></path>
<path fill="#d04e47" style="fill: var(--color4, #d04e47)" d="M64.969 27h0.86l1.604 4.472h-0.872l-0.362-1.115h-1.602l-0.364 1.115h-0.872l1.608-4.472zM65.999 29.748l-0.601-1.846-0.603 1.846h1.204z"></path>
<path fill="#d04e47" style="fill: var(--color4, #d04e47)" d="M68.758 28.6v2.873h-0.849v-4.472h0.675l2.255 2.947v-2.941h0.849v4.467h-0.706l-2.224-2.873z"></path>
<path fill="#d04e47" style="fill: var(--color4, #d04e47)" d="M73.091 27l1.076 2.104 1.093-2.104h0.916l-1.585 2.91v1.562h-0.841v-1.574l-1.579-2.898h0.921z"></path>
<path fill="#d04e47" style="fill: var(--color4, #d04e47)" d="M23.385 31.474v-2.935l-1.118 2.186h-0.473l-1.118-2.186v2.935h-0.849v-4.472h0.91l1.289 2.544 1.303-2.544h0.902v4.472h-0.847z"></path>
<path fill="#d04e47" style="fill: var(--color4, #d04e47)" d="M27.003 31.505c-0.32 0-0.608-0.063-0.87-0.19-0.259-0.125-0.483-0.297-0.67-0.512-0.187-0.217-0.33-0.46-0.433-0.731-0.103-0.27-0.154-0.55-0.154-0.835 0-0.297 0.053-0.583 0.162-0.853s0.257-0.512 0.448-0.724 0.416-0.379 0.675-0.505c0.259-0.123 0.546-0.186 0.856-0.186 0.315 0 0.603 0.065 0.864 0.196 0.259 0.131 0.483 0.305 0.666 0.522 0.185 0.219 0.328 0.462 0.429 0.731 0.103 0.268 0.155 0.546 0.155 0.831 0 0.293-0.053 0.577-0.16 0.847-0.107 0.272-0.256 0.512-0.446 0.724s-0.416 0.379-0.675 0.501c-0.256 0.123-0.54 0.184-0.847 0.184zM25.738 29.238c0 0.194 0.029 0.379 0.086 0.561 0.057 0.18 0.141 0.342 0.248 0.481 0.109 0.141 0.242 0.252 0.399 0.334 0.158 0.082 0.338 0.123 0.538 0.123 0.204 0 0.387-0.043 0.547-0.129s0.292-0.201 0.399-0.346c0.107-0.145 0.187-0.307 0.242-0.485s0.084-0.358 0.084-0.538c0-0.194-0.030-0.379-0.090-0.557s-0.143-0.338-0.252-0.479c-0.109-0.141-0.242-0.252-0.399-0.334-0.158-0.082-0.336-0.123-0.532-0.123-0.21 0-0.393 0.043-0.549 0.129-0.158 0.086-0.29 0.201-0.397 0.344s-0.187 0.303-0.242 0.479c-0.055 0.174-0.082 0.354-0.082 0.54z"></path>
<path fill="#d04e47" style="fill: var(--color4, #d04e47)" d="M33.775 31.474v-4.472h0.849v4.472h-0.849z"></path>
<path fill="#d04e47" style="fill: var(--color4, #d04e47)" d="M36.377 28.601v2.873h-0.849v-4.472h0.675l2.255 2.947v-2.941h0.849v4.467h-0.706l-2.224-2.873z"></path>
<path fill="#d04e47" style="fill: var(--color4, #d04e47)" d="M42.033 31.505c-0.282 0-0.549-0.059-0.801-0.176s-0.473-0.28-0.664-0.489c-0.191-0.207-0.34-0.45-0.446-0.727s-0.16-0.577-0.16-0.902c0-0.307 0.053-0.595 0.16-0.866s0.256-0.509 0.448-0.716c0.193-0.205 0.418-0.368 0.675-0.485s0.538-0.176 0.841-0.176c0.41 0 0.761 0.090 1.053 0.268 0.294 0.178 0.513 0.415 0.66 0.708l-0.633 0.479c-0.111-0.223-0.265-0.393-0.464-0.51s-0.414-0.176-0.649-0.176c-0.185 0-0.353 0.039-0.504 0.119s-0.282 0.19-0.393 0.327c-0.111 0.137-0.196 0.299-0.256 0.479s-0.090 0.372-0.090 0.573c0 0.215 0.032 0.411 0.095 0.593 0.063 0.18 0.153 0.338 0.271 0.473 0.116 0.135 0.254 0.241 0.408 0.319 0.156 0.078 0.328 0.117 0.517 0.117 0.221 0 0.433-0.059 0.635-0.176s0.393-0.289 0.568-0.516v0.857c-0.361 0.403-0.788 0.604-1.274 0.604zM43.25 29.812h-0.879v-0.636h1.579v2.3h-0.7v-1.664z"></path>
<path fill="#d04e47" style="fill: var(--color4, #d04e47)" d="M33.851 25.496l-0.591-1.013-0.898 0.911 0.313 0.020-1.425 5.028-1.181-3.44h-0.891l1.66 4.472h0.816l1.888-6.004 0.309 0.025z"></path>
<path fill="#2a3d5e" style="fill: var(--color1, #2a3d5e)" d="M92.622 18.44h-6.798v-2.714h6.043v0.745l3.376-2.687-3.376-2.685v0.798h-6.043v-2.425h6.798v0.661l3.378-2.685-3.378-2.685v0.589h-11.409v17.209h11.409v0.679l3.378-2.685-3.378-2.687v0.573z"></path>
<path fill="#2a3d5e" style="fill: var(--color1, #2a3d5e)" d="M37.885 22.525v-17.086h7.653c0.813 0 1.564 0.168 2.253 0.505s1.284 0.79 1.784 1.359 0.887 1.207 1.162 1.913c0.273 0.706 0.41 1.42 0.41 2.141 0 0.657-0.093 1.291-0.282 1.901-0.187 0.61-0.462 1.168-0.822 1.672s-0.79 0.943-1.291 1.312l3.521 6.281h-5.022l-2.934-5.247h-1.854v5.247l-4.576 0.002zM42.461 13.187h2.888c0.187 0 0.368-0.072 0.54-0.217s0.317-0.352 0.435-0.626c0.118-0.272 0.175-0.602 0.175-0.988 0-0.401-0.067-0.733-0.2-0.999-0.134-0.264-0.298-0.469-0.492-0.614-0.196-0.145-0.387-0.217-0.574-0.217h-2.77v3.661h-0.002z"></path>
<path fill="#2a3d5e" style="fill: var(--color1, #2a3d5e)" d="M53.728 22.525v-17.086h4.578v17.086h-4.578z"></path>
<path fill="#2a3d5e" style="fill: var(--color1, #2a3d5e)" d="M73.775 22.525v-9l-2.793 6.328h-2.442l-2.793-6.328v9h-4.578v-17.086h5l3.592 8.037 3.615-8.037h4.977v17.086h-4.578z"></path>
<path fill="#2a3d5e" style="fill: var(--color1, #2a3d5e)" d="M5.735 22.73c0.908 0 1.948-0.765 2.323-1.709s-0.053-1.709-0.961-1.709h-1.614c-0.908 0-1.948 0.765-2.323 1.709-0.189 0.471-0.175 0.9 0 1.209 0.174 0.309 0.509 0.501 0.961 0.501h1.614z"></path>
<path fill="#2a3d5e" style="fill: var(--color1, #2a3d5e)" d="M2.46 5.439c-0.908 0-1.948 0.765-2.323 1.709-0.189 0.471-0.175 0.9 0 1.209 0.174 0.309 0.509 0.501 0.961 0.501h1.614c0.908 0 1.948-0.765 2.323-1.709s-0.053-1.709-0.961-1.709h-1.614z"></path>
<path fill="#2a3d5e" style="fill: var(--color1, #2a3d5e)" d="M8.162 15.69c0.454 0 0.94-0.192 1.362-0.501 0.42-0.309 0.774-0.737 0.963-1.209 0.376-0.945-0.053-1.709-0.961-1.709h-6.243c-0.908 0-1.948 0.765-2.323 1.709s0.053 1.709 0.961 1.709h6.241z"></path>
<path fill="#2a3d5e" style="fill: var(--color1, #2a3d5e)" d="M35.642 9.217c-0.275-0.706-0.662-1.343-1.162-1.913-0.502-0.569-1.095-1.023-1.784-1.359s-1.44-0.505-2.253-0.505h-22.554c-0.454 0-0.94 0.192-1.362 0.501-0.42 0.309-0.774 0.737-0.963 1.209-0.376 0.945 0.053 1.709 0.961 1.709h14.819c0.603 0 0.994 0.338 1.078 0.843 0.044 0.254 0.009 0.55-0.116 0.866-0.036 0.088-0.078 0.174-0.124 0.26-0.2 0.368-0.496 0.696-0.837 0.948-0.361 0.266-0.771 0.442-1.165 0.489-0.065 0.008-0.132 0.012-0.196 0.012h-6.241c-0.067 0-0.135 0.006-0.204 0.014-0.381 0.045-0.776 0.215-1.127 0.465-0.010 0.008-0.021 0.014-0.031 0.022-0.42 0.309-0.774 0.737-0.963 1.209-0.059 0.147-0.095 0.287-0.116 0.422-0.032 0.217-0.021 0.417 0.034 0.593 0.132 0.42 0.502 0.692 1.042 0.692h10.878v3.416c-0.422 0.006-0.284 0-0.422 0h-11.823c-0.263 0-0.538 0.067-0.805 0.182-0.65 0.28-1.251 0.858-1.518 1.527-0.376 0.945 0.053 1.709 0.961 1.709h18.18v-5.247h2.722c1.095 0 2.054-0.285 2.875-0.855 0.822-0.569 1.463-1.302 1.925-2.202 0.462-0.898 0.692-1.852 0.692-2.863 0.010-0.726-0.128-1.439-0.401-2.145zM31.229 12.442c-0.118 0.274-0.261 0.465-0.435 0.577-0.172 0.111-0.353 0.168-0.54 0.168h-2.417v-3.657h2.3c0.187 0 0.38 0.053 0.574 0.156s0.361 0.289 0.492 0.553c0.134 0.264 0.2 0.638 0.2 1.119 0.002 0.45-0.057 0.81-0.175 1.083z"></path>
<path fill="#d04e47" style="fill: var(--color4, #d04e47)" d="M72.753 2.75c-0.093-0.436-0.273-0.831-0.532-1.189-0.284-0.393-0.641-0.704-1.066-0.927-0.549-0.289-1.133-0.387-1.745-0.321-0.010 0.002-0.021 0.004-0.031 0.008-0.168 0.014-0.332 0.053-0.494 0.102-0.326 0.1-0.627 0.252-0.904 0.458-0.444 0.329-0.78 0.749-1.007 1.259-0.204 0.458-0.294 0.939-0.265 1.439 0.010 0.192 0.040 0.381 0.090 0.565 0.002 0.018 0.004 0.035 0.010 0.051 0.078 0.303 0.177 0.6 0.301 0.886 0.149 0.344 0.303 0.686 0.469 1.023 0.341 0.69 0.721 1.361 1.123 2.016 0.301 0.493 0.616 0.978 0.925 1.465 0.036 0.059 0.078 0.113 0.118 0.168 0.013 0 0.025 0 0.038 0 0.006-0.010 0.011-0.018 0.019-0.027 0.006-0.006 0.013-0.010 0.017-0.016 0.071-0.106 0.141-0.207 0.208-0.315 0.296-0.469 0.595-0.937 0.883-1.41 0.181-0.295 0.349-0.598 0.519-0.9 0.313-0.555 0.607-1.121 0.866-1.705 0.139-0.315 0.263-0.634 0.364-0.964 0.034-0.111 0.057-0.225 0.084-0.338 0.002-0.006 0.006-0.012 0.008-0.018 0.097-0.436 0.097-0.872 0.002-1.31zM69.489 7.399c-0.055-0.047-0.111-0.092-0.166-0.141 0.055 0.049 0.111 0.096 0.166 0.141zM71.211 3.556c-0.055 0.403-0.246 0.731-0.561 0.98-0.29 0.229-0.618 0.33-0.984 0.309-0.011 0-0.023 0-0.034 0-0.021-0.002-0.042-0.006-0.063-0.008-0.006 0-0.010-0.002-0.015-0.002-0.101-0.027-0.204-0.049-0.301-0.086-0.246-0.092-0.452-0.242-0.616-0.45-0.231-0.289-0.347-0.624-0.334-0.997 0.017-0.475 0.212-0.862 0.578-1.156 0.21-0.168 0.448-0.266 0.711-0.299 0.006 0 0.013-0.004 0.019-0.006 0.109 0.002 0.218-0.006 0.324 0.006 0.299 0.031 0.565 0.153 0.788 0.358 0.391 0.362 0.561 0.814 0.488 1.351z"></path>
</symbol>
</defs>
</svg>
