<svg aria-hidden="true" style="position: absolute; width: 0; height: 0; overflow: hidden;" version="1.1" xmlns="http://www.w3.org/2000/svg" xmlns:xlink="http://www.w3.org/1999/xlink">
<defs>
<symbol id="icon-back-arrow" viewBox="0 0 20 32">
<path d="M16.291 32l-16.291-16 16.291-16 4.073 4-12.218 12 12.218 12-4.073 4z"></path>
</symbol>
<symbol id="icon-check" viewBox="0 0 41 32">
<path d="M14.287 24.738l-7.27-7.27c-0.392-0.392-0.923-0.612-1.477-0.612s-1.085 0.22-1.477 0.612-0.612 0.923-0.612 1.477c0 0.274 0.054 0.546 0.159 0.799s0.259 0.484 0.453 0.678l8.758 8.758c0.817 0.817 2.137 0.817 2.954 0l22.168-22.168c0.392-0.392 0.612-0.923 0.612-1.477s-0.22-1.085-0.612-1.477c-0.392-0.392-0.923-0.612-1.477-0.612s-1.085 0.22-1.477 0.612l-20.701 20.68z"></path>
</symbol>
<symbol id="icon-forward-arrow" viewBox="0 0 20 32">
<path d="M4.073 32l16.291-16-16.291-16-4.073 4 12.218 12-12.218 12 4.073 4z"></path>
</symbol>
<symbol id="icon-instagram" viewBox="0 0 32 32">
<path d="M16.001 0c-4.345 0-4.891 0.019-6.597 0.097-1.703 0.078-2.866 0.348-3.883 0.743-1.052 0.409-1.945 0.955-2.834 1.845s-1.437 1.782-1.847 2.834c-0.397 1.018-0.667 2.181-0.743 3.883-0.076 1.707-0.096 2.252-0.096 6.598s0.019 4.889 0.097 6.596c0.078 1.703 0.348 2.866 0.743 3.883 0.409 1.052 0.956 1.945 1.845 2.834s1.782 1.438 2.833 1.847c1.018 0.396 2.181 0.665 3.884 0.743 1.707 0.078 2.252 0.097 6.597 0.097s4.889-0.019 6.596-0.097c1.703-0.078 2.867-0.348 3.885-0.743 1.052-0.409 1.943-0.957 2.832-1.847 0.89-0.889 1.437-1.782 1.847-2.834 0.393-1.018 0.663-2.181 0.743-3.883 0.077-1.707 0.097-2.251 0.097-6.596s-0.020-4.891-0.097-6.597c-0.080-1.703-0.35-2.866-0.743-3.883-0.41-1.052-0.957-1.945-1.847-2.835s-1.78-1.437-2.833-1.845c-1.020-0.396-2.183-0.666-3.887-0.744-1.707-0.078-2.25-0.097-6.597-0.097h0.005zM14.566 2.883c0.426-0.001 0.901 0 1.435 0 4.272 0 4.778 0.015 6.465 0.092 1.56 0.071 2.407 0.332 2.971 0.551 0.747 0.29 1.279 0.637 1.839 1.197s0.907 1.093 1.197 1.84c0.219 0.563 0.48 1.41 0.551 2.97 0.077 1.687 0.093 2.193 0.093 6.463s-0.017 4.777-0.093 6.463c-0.071 1.56-0.332 2.407-0.551 2.97-0.29 0.747-0.637 1.278-1.197 1.838s-1.092 0.907-1.839 1.197c-0.563 0.22-1.411 0.48-2.971 0.551-1.687 0.077-2.193 0.093-6.465 0.093s-4.779-0.017-6.465-0.093c-1.56-0.072-2.407-0.333-2.971-0.552-0.747-0.29-1.28-0.637-1.84-1.197s-0.907-1.092-1.197-1.839c-0.219-0.563-0.48-1.41-0.551-2.97-0.077-1.687-0.092-2.193-0.092-6.466s0.015-4.777 0.092-6.463c0.071-1.56 0.332-2.407 0.551-2.971 0.29-0.747 0.637-1.28 1.197-1.84s1.093-0.907 1.84-1.197c0.564-0.22 1.411-0.48 2.971-0.552 1.476-0.067 2.048-0.087 5.030-0.090v0.004zM24.542 5.54c-1.060 0-1.92 0.859-1.92 1.919s0.86 1.92 1.92 1.92 1.92-0.86 1.92-1.92c0-1.060-0.86-1.92-1.92-1.92v0.001zM16.001 7.783c-4.538 0-8.217 3.679-8.217 8.217s3.679 8.215 8.217 8.215c4.538 0 8.216-3.677 8.216-8.215s-3.678-8.217-8.216-8.217h0zM16.001 10.667c2.945 0 5.333 2.388 5.333 5.333s-2.388 5.333-5.333 5.333-5.333-2.388-5.333-5.333c0-2.946 2.388-5.333 5.333-5.333z"></path>
</symbol>
<symbol id="icon-location" viewBox="0 0 24 32">
<path d="M11.999 15.223c-1.061 0-2.078-0.41-2.828-1.139s-1.172-1.718-1.172-2.75c0-1.031 0.421-2.021 1.172-2.75s1.768-1.139 2.828-1.139c1.061 0 2.078 0.41 2.828 1.139s1.172 1.718 1.172 2.75c0 0.511-0.103 1.016-0.304 1.488s-0.496 0.9-0.867 1.262c-0.371 0.361-0.812 0.648-1.298 0.843s-1.005 0.296-1.531 0.296zM11.999 0.445c-2.97 0-5.819 1.147-7.92 3.189s-3.28 4.812-3.28 7.7c0 8.167 11.2 20.222 11.2 20.222s11.2-12.056 11.2-20.222c0-2.888-1.18-5.658-3.28-7.7s-4.949-3.189-7.92-3.189z"></path>
</symbol>
<symbol id="icon-mail" viewBox="0 0 40 32">
<path d="M14.175 18.637l-12.112 11.95c0.381 0.152 0.797 0.237 1.231 0.237h32.94c0.356-0.001 0.693-0.054 1.012-0.158l-12.086-11.924-5.392 3.72-5.593-3.824zM39.529 8.837v18.692c0 0.488-0.107 0.951-0.296 1.368l-11.847-11.689 12.143-8.37zM0 8.942v18.587c0.001 0.395 0.072 0.787 0.209 1.158l11.732-11.578-11.942-8.167zM36.235 1.176c1.818 0 3.295 1.474 3.295 3.295v1.158l-19.769 13.628-19.761-13.515v-1.271c0-1.818 1.474-3.295 3.295-3.295h32.94z"></path>
</symbol>
<symbol id="icon-peaople" viewBox="0 0 38 32">
<path d="M16.545 30.182c0 0-2.364 0-2.364-2.364s2.364-9.455 11.818-9.455c9.455 0 11.818 7.091 11.818 9.455s-2.364 2.364-2.364 2.364h-18.909zM26 16c1.881 0 3.684-0.747 5.014-2.077s2.077-3.133 2.077-5.014c0-1.881-0.747-3.684-2.077-5.014s-3.133-2.077-5.014-2.077c-1.881 0-3.684 0.747-5.014 2.077s-2.077 3.133-2.077 5.014c0 1.881 0.747 3.684 2.077 5.014s3.133 2.077 5.014 2.077zM12.329 30.182c-0.35-0.738-0.525-1.547-0.511-2.364 0-3.203 1.607-6.5 4.576-8.793-1.482-0.457-3.026-0.681-4.576-0.662-9.455 0-11.818 7.091-11.818 9.455s2.364 2.364 2.364 2.364h9.965zM10.636 16c1.567 0 3.070-0.623 4.178-1.731s1.731-2.611 1.731-4.178c0-1.567-0.623-3.070-1.731-4.178s-2.611-1.731-4.178-1.731c-1.567 0-3.070 0.623-4.178 1.731s-1.731 2.611-1.731 4.178c0 1.567 0.623 3.070 1.731 4.178s2.611 1.731 4.178 1.731z"></path>
</symbol>
<symbol id="icon-phone" viewBox="0 0 32 32">
<path d="M30.164 26.681c-0.191 0.855-0.663 1.62-1.342 2.174-0.741 0.752-1.625 1.349-2.599 1.756s-2.019 0.618-3.075 0.618h-0.493c-2.216-0.12-4.386-0.681-6.383-1.65h-0.015c-0.463-0.216-0.941-0.431-1.404-0.694-2.331-1.307-4.469-2.931-6.353-4.827-2.445-2.296-4.451-5.018-5.92-8.033-0.781-1.652-1.302-3.415-1.545-5.226-0.358-1.896-0.142-3.855 0.618-5.629 0.48-0.8 1.066-1.531 1.743-2.174 0.304-0.344 0.676-0.622 1.093-0.816s0.869-0.3 1.328-0.311c0.5 0.055 0.983 0.209 1.423 0.453s0.826 0.572 1.138 0.967c0.694 0.754 1.541 1.541 2.236 2.266l0.956 0.941c0.562 0.498 0.909 1.193 0.972 1.943 0 0.688-0.254 1.351-0.71 1.866-0.296 0.36-0.61 0.704-0.941 1.032l-0.308 0.323c-0.179 0.167-0.316 0.373-0.401 0.603-0.076 0.226-0.106 0.457-0.091 0.694 0.244 0.654 0.628 1.249 1.123 1.743 0.773 1.047 1.544 1.958 2.33 2.945 1.422 1.651 3.11 3.053 4.994 4.149 0.193 0.141 0.414 0.235 0.65 0.276 0.203 0.015 0.41-0.015 0.601-0.091 0.539-0.317 1.017-0.724 1.418-1.204 0.539-0.66 1.313-1.085 2.158-1.187 0.814 0.011 1.591 0.344 2.16 0.926 0.308 0.261 0.647 0.616 0.971 0.956l0.461 0.477 0.478 0.463 0.818 0.832c0.488 0.433 0.945 0.896 1.372 1.389 0.428 0.592 0.621 1.325 0.539 2.051zM24.63 16.117c-0.306-0.003-0.598-0.126-0.814-0.342s-0.339-0.509-0.342-0.814c0.002-0.873-0.169-1.738-0.503-2.545s-0.823-1.54-1.44-2.158-1.351-1.107-2.158-1.44c-0.807-0.333-1.672-0.504-2.545-0.503-0.307 0-0.601-0.122-0.818-0.339s-0.339-0.511-0.339-0.818c0-0.307 0.122-0.601 0.339-0.818s0.511-0.339 0.818-0.339c1.177-0.002 2.343 0.229 3.431 0.678s2.076 1.109 2.908 1.942c0.832 0.832 1.492 1.821 1.942 2.908s0.68 2.254 0.678 3.431c0 0.152-0.029 0.303-0.087 0.443s-0.143 0.268-0.251 0.376c-0.107 0.107-0.235 0.193-0.376 0.251s-0.291 0.088-0.443 0.087z"></path>
<path d="M29.981 15.577c-0.306-0.003-0.598-0.126-0.814-0.342s-0.339-0.508-0.343-0.813c0.002-1.488-0.289-2.961-0.856-4.337s-1.401-2.625-2.452-3.678c-1.051-1.053-2.3-1.888-3.674-2.458s-2.848-0.863-4.335-0.863c-0.155 0.006-0.31-0.020-0.455-0.076s-0.278-0.14-0.39-0.248c-0.112-0.108-0.201-0.237-0.262-0.38s-0.092-0.297-0.092-0.452c0-0.155 0.031-0.309 0.092-0.452s0.15-0.272 0.262-0.38c0.112-0.108 0.244-0.192 0.39-0.248s0.3-0.081 0.455-0.076c1.791 0 3.565 0.353 5.22 1.039s3.158 1.691 4.424 2.959 2.27 2.772 2.954 4.427c0.684 1.656 1.035 3.43 1.033 5.221 0 0.152-0.029 0.303-0.087 0.443s-0.143 0.268-0.251 0.376-0.235 0.193-0.376 0.251c-0.141 0.058-0.291 0.086-0.443 0.086z"></path>
</symbol>
<symbol id="icon-logo" viewBox="0 0 96 32">
<path fill="#d04e47" style="fill: var(--color2, #d04e47)" d="M45.885 29.201c0-0.274 0.048-0.54 0.145-0.804 0.095-0.262 0.236-0.503 0.422-0.718 0.185-0.217 0.41-0.389 0.675-0.516 0.267-0.127 0.568-0.192 0.91-0.192 0.401 0 0.748 0.090 1.041 0.272 0.292 0.18 0.511 0.417 0.654 0.706l-0.65 0.46c-0.074-0.168-0.17-0.301-0.288-0.401-0.118-0.098-0.246-0.168-0.381-0.207s-0.269-0.061-0.399-0.061c-0.214 0-0.399 0.045-0.557 0.133s-0.29 0.203-0.397 0.346c-0.107 0.143-0.185 0.303-0.236 0.479s-0.076 0.352-0.076 0.53c0 0.198 0.031 0.387 0.092 0.569s0.149 0.344 0.261 0.485 0.248 0.252 0.406 0.334c0.158 0.082 0.33 0.123 0.519 0.123 0.135 0 0.273-0.023 0.412-0.068 0.139-0.047 0.269-0.119 0.387-0.221s0.212-0.231 0.277-0.391l0.694 0.409c-0.086 0.223-0.227 0.411-0.422 0.567-0.195 0.154-0.412 0.274-0.654 0.352-0.242 0.080-0.481 0.119-0.719 0.119-0.311 0-0.595-0.066-0.855-0.198-0.257-0.133-0.481-0.309-0.666-0.53-0.187-0.221-0.332-0.467-0.437-0.743s-0.158-0.555-0.158-0.835z"></path>
<path fill="#d04e47" style="fill: var(--color2, #d04e47)" d="M52.169 31.504c-0.321 0-0.608-0.063-0.87-0.19-0.26-0.125-0.483-0.297-0.67-0.512-0.187-0.217-0.33-0.46-0.433-0.731-0.103-0.27-0.155-0.55-0.155-0.835 0-0.297 0.053-0.583 0.162-0.853 0.109-0.272 0.258-0.512 0.448-0.724s0.416-0.379 0.675-0.505c0.259-0.123 0.546-0.186 0.856-0.186 0.315 0 0.603 0.065 0.864 0.196 0.259 0.131 0.483 0.305 0.666 0.522 0.185 0.219 0.328 0.462 0.429 0.731 0.103 0.268 0.155 0.546 0.155 0.831 0 0.293-0.053 0.577-0.16 0.847-0.107 0.272-0.256 0.512-0.446 0.724s-0.416 0.379-0.675 0.501c-0.256 0.123-0.54 0.184-0.847 0.184zM50.905 29.238c0 0.194 0.029 0.379 0.086 0.561 0.057 0.18 0.141 0.342 0.248 0.481 0.109 0.141 0.242 0.252 0.399 0.334 0.158 0.082 0.338 0.123 0.538 0.123 0.204 0 0.387-0.043 0.547-0.129s0.292-0.201 0.399-0.346c0.107-0.145 0.187-0.307 0.242-0.485s0.084-0.358 0.084-0.538c0-0.194-0.031-0.379-0.090-0.557s-0.143-0.338-0.252-0.479-0.242-0.252-0.399-0.334c-0.158-0.082-0.336-0.123-0.532-0.123-0.21 0-0.393 0.043-0.549 0.129-0.158 0.086-0.29 0.201-0.397 0.344s-0.187 0.303-0.242 0.479c-0.055 0.174-0.082 0.354-0.082 0.54z"></path>
<path fill="#d04e47" style="fill: var(--color2, #d04e47)" d="M58.512 31.472v-2.935l-1.118 2.186h-0.473l-1.118-2.186v2.935h-0.849v-4.472h0.91l1.289 2.544 1.303-2.544h0.902v4.472h-0.847z"></path>
<path fill="#d04e47" style="fill: var(--color2, #d04e47)" d="M60.269 31.472v-4.472h1.85c0.2 0 0.385 0.041 0.553 0.125s0.315 0.198 0.439 0.34c0.124 0.143 0.221 0.303 0.292 0.479 0.069 0.176 0.105 0.358 0.105 0.542 0 0.252-0.057 0.491-0.172 0.718s-0.273 0.411-0.473 0.553c-0.2 0.143-0.439 0.213-0.713 0.213h-1.032v1.5h-0.849v0.002zM61.116 29.212h0.982c0.103 0 0.195-0.029 0.277-0.088s0.147-0.145 0.196-0.254c0.050-0.111 0.074-0.239 0.074-0.381 0-0.155-0.029-0.288-0.084-0.397s-0.128-0.192-0.216-0.246c-0.088-0.055-0.183-0.082-0.286-0.082h-0.946v1.449h0.002z"></path>
<path fill="#d04e47" style="fill: var(--color2, #d04e47)" d="M64.969 27h0.86l1.604 4.472h-0.872l-0.362-1.115h-1.602l-0.364 1.115h-0.872l1.608-4.472zM65.999 29.748l-0.601-1.846-0.603 1.846h1.204z"></path>
<path fill="#d04e47" style="fill: var(--color2, #d04e47)" d="M68.758 28.6v2.873h-0.849v-4.472h0.675l2.255 2.947v-2.941h0.849v4.467h-0.706l-2.224-2.873z"></path>
<path fill="#d04e47" style="fill: var(--color2, #d04e47)" d="M73.091 27l1.076 2.104 1.093-2.104h0.916l-1.585 2.91v1.562h-0.841v-1.574l-1.579-2.898h0.921z"></path>
<path fill="#d04e47" style="fill: var(--color2, #d04e47)" d="M23.385 31.474v-2.935l-1.118 2.186h-0.473l-1.118-2.186v2.935h-0.849v-4.472h0.91l1.289 2.544 1.303-2.544h0.902v4.472h-0.847z"></path>
<path fill="#d04e47" style="fill: var(--color2, #d04e47)" d="M27.003 31.505c-0.32 0-0.608-0.063-0.87-0.19-0.259-0.125-0.483-0.297-0.67-0.512-0.187-0.217-0.33-0.46-0.433-0.731-0.103-0.27-0.154-0.55-0.154-0.835 0-0.297 0.053-0.583 0.162-0.853s0.257-0.512 0.448-0.724 0.416-0.379 0.675-0.505c0.259-0.123 0.546-0.186 0.856-0.186 0.315 0 0.603 0.065 0.864 0.196 0.259 0.131 0.483 0.305 0.666 0.522 0.185 0.219 0.328 0.462 0.429 0.731 0.103 0.268 0.155 0.546 0.155 0.831 0 0.293-0.053 0.577-0.16 0.847-0.107 0.272-0.256 0.512-0.446 0.724s-0.416 0.379-0.675 0.501c-0.256 0.123-0.54 0.184-0.847 0.184zM25.738 29.238c0 0.194 0.029 0.379 0.086 0.561 0.057 0.18 0.141 0.342 0.248 0.481 0.109 0.141 0.242 0.252 0.399 0.334 0.158 0.082 0.338 0.123 0.538 0.123 0.204 0 0.387-0.043 0.547-0.129s0.292-0.201 0.399-0.346c0.107-0.145 0.187-0.307 0.242-0.485s0.084-0.358 0.084-0.538c0-0.194-0.030-0.379-0.090-0.557s-0.143-0.338-0.252-0.479c-0.109-0.141-0.242-0.252-0.399-0.334-0.158-0.082-0.336-0.123-0.532-0.123-0.21 0-0.393 0.043-0.549 0.129-0.158 0.086-0.29 0.201-0.397 0.344s-0.187 0.303-0.242 0.479c-0.055 0.174-0.082 0.354-0.082 0.54z"></path>
<path fill="#d04e47" style="fill: var(--color2, #d04e47)" d="M33.775 31.474v-4.472h0.849v4.472h-0.849z"></path>
<path fill="#d04e47" style="fill: var(--color2, #d04e47)" d="M36.377 28.601v2.873h-0.849v-4.472h0.675l2.255 2.947v-2.941h0.849v4.467h-0.706l-2.224-2.873z"></path>
<path fill="#d04e47" style="fill: var(--color2, #d04e47)" d="M42.033 31.505c-0.282 0-0.549-0.059-0.801-0.176s-0.473-0.28-0.664-0.489c-0.191-0.207-0.34-0.45-0.446-0.727s-0.16-0.577-0.16-0.902c0-0.307 0.053-0.595 0.16-0.866s0.256-0.509 0.448-0.716c0.193-0.205 0.418-0.368 0.675-0.485s0.538-0.176 0.841-0.176c0.41 0 0.761 0.090 1.053 0.268 0.294 0.178 0.513 0.415 0.66 0.708l-0.633 0.479c-0.111-0.223-0.265-0.393-0.464-0.51s-0.414-0.176-0.649-0.176c-0.185 0-0.353 0.039-0.504 0.119s-0.282 0.19-0.393 0.327c-0.111 0.137-0.196 0.299-0.256 0.479s-0.090 0.372-0.090 0.573c0 0.215 0.032 0.411 0.095 0.593 0.063 0.18 0.153 0.338 0.271 0.473 0.116 0.135 0.254 0.241 0.408 0.319 0.156 0.078 0.328 0.117 0.517 0.117 0.221 0 0.433-0.059 0.635-0.176s0.393-0.289 0.568-0.516v0.857c-0.361 0.403-0.788 0.604-1.274 0.604zM43.25 29.812h-0.879v-0.636h1.579v2.3h-0.7v-1.664z"></path>
<path fill="#d04e47" style="fill: var(--color2, #d04e47)" d="M33.851 25.496l-0.591-1.013-0.898 0.911 0.313 0.020-1.425 5.028-1.181-3.44h-0.891l1.66 4.472h0.816l1.888-6.004 0.309 0.025z"></path>
<path fill="#2a3d5e" style="fill: var(--color1, #2a3d5e)" d="M92.622 18.44h-6.798v-2.714h6.043v0.745l3.376-2.687-3.376-2.685v0.798h-6.043v-2.425h6.798v0.661l3.378-2.685-3.378-2.685v0.589h-11.409v17.209h11.409v0.679l3.378-2.685-3.378-2.687v0.573z"></path>
<path fill="#2a3d5e" style="fill: var(--color1, #2a3d5e)" d="M37.885 22.525v-17.086h7.653c0.813 0 1.564 0.168 2.253 0.505s1.284 0.79 1.784 1.359 0.887 1.207 1.162 1.913c0.273 0.706 0.41 1.42 0.41 2.141 0 0.657-0.093 1.291-0.282 1.901-0.187 0.61-0.462 1.168-0.822 1.672s-0.79 0.943-1.291 1.312l3.521 6.281h-5.022l-2.934-5.247h-1.854v5.247l-4.576 0.002zM42.461 13.187h2.888c0.187 0 0.368-0.072 0.54-0.217s0.317-0.352 0.435-0.626c0.118-0.272 0.175-0.602 0.175-0.988 0-0.401-0.067-0.733-0.2-0.999-0.134-0.264-0.298-0.469-0.492-0.614-0.196-0.145-0.387-0.217-0.574-0.217h-2.77v3.661h-0.002z"></path>
<path fill="#2a3d5e" style="fill: var(--color1, #2a3d5e)" d="M53.728 22.525v-17.086h4.578v17.086h-4.578z"></path>
<path fill="#2a3d5e" style="fill: var(--color1, #2a3d5e)" d="M73.775 22.525v-9l-2.793 6.328h-2.442l-2.793-6.328v9h-4.578v-17.086h5l3.592 8.037 3.615-8.037h4.977v17.086h-4.578z"></path>
<path fill="#2a3d5e" style="fill: var(--color1, #2a3d5e)" d="M5.735 22.73c0.908 0 1.948-0.765 2.323-1.709s-0.053-1.709-0.961-1.709h-1.614c-0.908 0-1.948 0.765-2.323 1.709-0.189 0.471-0.175 0.9 0 1.209 0.174 0.309 0.509 0.501 0.961 0.501h1.614z"></path>
<path fill="#2a3d5e" style="fill: var(--color1, #2a3d5e)" d="M2.46 5.439c-0.908 0-1.948 0.765-2.323 1.709-0.189 0.471-0.175 0.9 0 1.209 0.174 0.309 0.509 0.501 0.961 0.501h1.614c0.908 0 1.948-0.765 2.323-1.709s-0.053-1.709-0.961-1.709h-1.614z"></path>
<path fill="#2a3d5e" style="fill: var(--color1, #2a3d5e)" d="M8.162 15.69c0.454 0 0.94-0.192 1.362-0.501 0.42-0.309 0.774-0.737 0.963-1.209 0.376-0.945-0.053-1.709-0.961-1.709h-6.243c-0.908 0-1.948 0.765-2.323 1.709s0.053 1.709 0.961 1.709h6.241z"></path>
<path fill="#2a3d5e" style="fill: var(--color1, #2a3d5e)" d="M35.642 9.217c-0.275-0.706-0.662-1.343-1.162-1.913-0.502-0.569-1.095-1.023-1.784-1.359s-1.44-0.505-2.253-0.505h-22.554c-0.454 0-0.94 0.192-1.362 0.501-0.42 0.309-0.774 0.737-0.963 1.209-0.376 0.945 0.053 1.709 0.961 1.709h14.819c0.603 0 0.994 0.338 1.078 0.843 0.044 0.254 0.009 0.55-0.116 0.866-0.036 0.088-0.078 0.174-0.124 0.26-0.2 0.368-0.496 0.696-0.837 0.948-0.361 0.266-0.771 0.442-1.165 0.489-0.065 0.008-0.132 0.012-0.196 0.012h-6.241c-0.067 0-0.135 0.006-0.204 0.014-0.381 0.045-0.776 0.215-1.127 0.465-0.010 0.008-0.021 0.014-0.031 0.022-0.42 0.309-0.774 0.737-0.963 1.209-0.059 0.147-0.095 0.287-0.116 0.422-0.032 0.217-0.021 0.417 0.034 0.593 0.132 0.42 0.502 0.692 1.042 0.692h10.878v3.416c-0.422 0.006-0.284 0-0.422 0h-11.823c-0.263 0-0.538 0.067-0.805 0.182-0.65 0.28-1.251 0.858-1.518 1.527-0.376 0.945 0.053 1.709 0.961 1.709h18.18v-5.247h2.722c1.095 0 2.054-0.285 2.875-0.855 0.822-0.569 1.463-1.302 1.925-2.202 0.462-0.898 0.692-1.852 0.692-2.863 0.010-0.726-0.128-1.439-0.401-2.145zM31.229 12.442c-0.118 0.274-0.261 0.465-0.435 0.577-0.172 0.111-0.353 0.168-0.54 0.168h-2.417v-3.657h2.3c0.187 0 0.38 0.053 0.574 0.156s0.361 0.289 0.492 0.553c0.134 0.264 0.2 0.638 0.2 1.119 0.002 0.45-0.057 0.81-0.175 1.083z"></path>
<path fill="#d04e47" style="fill: var(--color2, #d04e47)" d="M72.753 2.75c-0.093-0.436-0.273-0.831-0.532-1.189-0.284-0.393-0.641-0.704-1.066-0.927-0.549-0.289-1.133-0.387-1.745-0.321-0.010 0.002-0.021 0.004-0.031 0.008-0.168 0.014-0.332 0.053-0.494 0.102-0.326 0.1-0.627 0.252-0.904 0.458-0.444 0.329-0.78 0.749-1.007 1.259-0.204 0.458-0.294 0.939-0.265 1.439 0.010 0.192 0.040 0.381 0.090 0.565 0.002 0.018 0.004 0.035 0.010 0.051 0.078 0.303 0.177 0.6 0.301 0.886 0.149 0.344 0.303 0.686 0.469 1.023 0.341 0.69 0.721 1.361 1.123 2.016 0.301 0.493 0.616 0.978 0.925 1.465 0.036 0.059 0.078 0.113 0.118 0.168 0.013 0 0.025 0 0.038 0 0.006-0.010 0.011-0.018 0.019-0.027 0.006-0.006 0.013-0.010 0.017-0.016 0.071-0.106 0.141-0.207 0.208-0.315 0.296-0.469 0.595-0.937 0.883-1.41 0.181-0.295 0.349-0.598 0.519-0.9 0.313-0.555 0.607-1.121 0.866-1.705 0.139-0.315 0.263-0.634 0.364-0.964 0.034-0.111 0.057-0.225 0.084-0.338 0.002-0.006 0.006-0.012 0.008-0.018 0.097-0.436 0.097-0.872 0.002-1.31zM69.489 7.399c-0.055-0.047-0.111-0.092-0.166-0.141 0.055 0.049 0.111 0.096 0.166 0.141zM71.211 3.556c-0.055 0.403-0.246 0.731-0.561 0.98-0.29 0.229-0.618 0.33-0.984 0.309-0.011 0-0.023 0-0.034 0-0.021-0.002-0.042-0.006-0.063-0.008-0.006 0-0.010-0.002-0.015-0.002-0.101-0.027-0.204-0.049-0.301-0.086-0.246-0.092-0.452-0.242-0.616-0.45-0.231-0.289-0.347-0.624-0.334-0.997 0.017-0.475 0.212-0.862 0.578-1.156 0.21-0.168 0.448-0.266 0.711-0.299 0.006 0 0.013-0.004 0.019-0.006 0.109 0.002 0.218-0.006 0.324 0.006 0.299 0.031 0.565 0.153 0.788 0.358 0.391 0.362 0.561 0.814 0.488 1.351z"></path>
</symbol>
</defs>
</svg>
